<svg width="40" height="40" viewBox="0 0 40 40" fill="none" xmlns="http://www.w3.org/2000/svg">
<path d="M20 0C8.952 0 0 8.952 0 20C0 31.048 8.952 40 20 40C31.048 40 40 31.048 40 20C40 8.952 31.048 0 20 0ZM30.008 26.664C30.008 26.8 29.976 26.928 29.928 27.04C29.752 27.352 29.416 27.56 29.032 27.56C28.04 27.56 27.04 27.56 26.048 27.56C25.832 27.56 25.624 27.56 25.416 27.56C25.304 27.648 25.168 27.712 25.008 27.752C24.92 27.776 24.832 27.784 24.736 27.784C22.608 27.792 20.072 27.792 17.944 27.784C17.92 27.784 17.856 27.776 17.856 27.768C17.856 27.776 17.792 27.784 17.76 27.784C15.632 27.792 13.096 27.792 10.968 27.784C10.392 27.776 10.032 27.456 10.016 26.952C10 26.6 10.008 26.24 10.008 25.888C10.008 25.384 10.272 25.008 10.728 24.696C12.032 23.808 13.824 23.032 15.304 22.384C15.456 22.312 15.528 22.224 15.52 22.072C15.504 21.792 15.52 21.504 15.512 21.224C15.512 21.096 15.464 20.976 15.44 20.832C15.456 20.832 15.472 20.832 15.488 20.832C15.464 20.832 15.44 20.768 15.424 20.728C15.232 20.336 15 19.96 14.784 19.576C14.744 19.504 14.688 19.448 14.64 19.384C14.176 18.752 13.952 18.064 14.008 17.312C14.016 17.208 14.04 17.08 14.104 17C14.288 16.768 14.232 16.528 14.192 16.288C14.112 15.768 14.072 15.248 14.208 14.736C14.376 14.104 14.736 13.632 15.48 13.456C15.552 13.44 15.624 13.376 15.656 13.312C16.064 12.568 16.944 12.176 17.864 12.192C18.792 12.176 19.664 12.568 20.072 13.312C20.104 13.368 20.184 13.44 20.248 13.456C20.992 13.624 21.352 14.104 21.52 14.736C21.656 15.256 21.616 15.768 21.536 16.288C21.496 16.536 21.44 16.768 21.624 17C21.688 17.08 21.712 17.208 21.72 17.312C21.776 18.072 21.552 18.76 21.088 19.384C21.04 19.448 20.984 19.504 20.944 19.576C20.728 19.952 20.488 20.328 20.304 20.728C20.288 20.768 20.264 20.832 20.24 20.832C20.248 20.832 20.256 20.832 20.264 20.832C20.24 20.968 20.2 21.096 20.192 21.224C20.176 21.504 20.2 21.792 20.184 22.072C20.176 22.232 20.24 22.312 20.4 22.384C20.864 22.592 21.368 22.808 21.872 23.04C22.648 23.392 23.432 23.776 24.144 24.184C24.28 24.264 24.408 24.336 24.536 24.416C24.696 24.512 24.84 24.608 24.984 24.704C25.44 25.016 25.696 25.392 25.696 25.88C25.696 26.128 25.704 26.384 25.704 26.632C25.704 26.744 25.704 26.848 25.696 26.952C25.696 26.976 25.696 27 25.688 27.024C25.664 27.232 25.584 27.408 25.448 27.536C25.784 27.432 25.992 27.176 26.024 26.832C26.032 26.832 26.04 26.832 26.048 26.832C27.072 26.832 27.904 26 27.904 24.976C27.904 24.6 27.784 24.24 27.576 23.944C27.24 23.456 26.68 23.136 26.048 23.136C25.4 23.136 24.832 23.48 24.496 23.984C24.496 23.984 24.488 23.984 24.488 23.992C23.776 23.584 22.992 23.2 22.216 22.848C22.408 22.576 22.72 22.416 23.112 22.416C23.488 22.416 23.872 22.424 24.264 22.424V22.432H24.44V22.256C24.44 21.8 24.776 21.424 25.216 21.368H25.208C25.24 21.36 25.272 21.36 25.312 21.36C25.544 21.36 25.776 21.36 26.008 21.36C26.256 21.36 26.496 21.36 26.744 21.36C26.752 21.36 26.744 21.36 26.752 21.36C27.224 21.392 27.568 21.776 27.568 22.256V22.432H27.816V22.424C28.224 22.424 28.616 22.408 29.016 22.416C29.416 22.424 29.728 22.6 29.92 22.952C29.936 22.976 29.944 22.992 29.952 23.016C29.984 23.112 30 23.208 30.008 23.296V26.664ZM24.864 24.224C25.12 23.848 25.552 23.608 26.04 23.608C26.824 23.608 27.456 24.248 27.472 25.032C27.472 25.816 26.832 26.456 26.048 26.456C26.048 26.456 26.048 26.456 26.04 26.456C26.04 26.208 26.032 25.952 26.032 25.704C26.032 25.2 25.768 24.824 25.312 24.512C25.168 24.408 25.016 24.32 24.864 24.224Z" fill="#BFBFBF"/>
</svg>
