<svg width="26" height="17" viewBox="0 0 26 17" fill="none" xmlns="http://www.w3.org/2000/svg">
<path d="M0 0V15.5053H0.446494V16.8451H2.21899V15.5053H23.781V16.8451H25.5532V15.5053H26V0H0ZM1.898 16.5238H0.767481V15.505H1.898V16.5238ZM25.2322 16.5238H24.102V15.505H25.2322V16.5238ZM25.679 15.184H25.5532H23.781H2.21899H0.446494H0.320988V0.320988H25.679V15.184Z" fill="white"/>
<path d="M3.94989 2.9519H3.62891V12.5536H3.94989V2.9519Z" fill="white"/>
<path d="M7.63422 2.9519H7.31323V12.5536H7.63422V2.9519Z" fill="white"/>
<path d="M11.3183 2.9519H10.9973V12.5536H11.3183V2.9519Z" fill="white"/>
<path d="M15.0024 2.9519H14.6814V12.5536H15.0024V2.9519Z" fill="white"/>
<path d="M18.687 2.9519H18.366V12.5536H18.687V2.9519Z" fill="white"/>
<path d="M22.3712 2.9519H22.0502V12.5536H22.3712V2.9519Z" fill="white"/>
</svg>
