<svg width="24" height="24" viewBox="0 0 24 24" fill="none" xmlns="http://www.w3.org/2000/svg">
<path d="M8 4C8 3.73478 8.10536 3.48043 8.29289 3.29289C8.48043 3.10536 8.73478 3 9 3H15C15.2652 3 15.5196 3.10536 15.7071 3.29289C15.8946 3.48043 16 3.73478 16 4V4.5H17V3.5C17 3.10218 16.842 2.72064 16.5607 2.43934C16.2794 2.15804 15.8978 2 15.5 2H8.5C8.10218 2 7.72064 2.15804 7.43934 2.43934C7.15804 2.72064 7 3.10218 7 3.5V4.5H8V4Z" fill="white"/>
<path d="M21.5 5.5H2.5C2.36739 5.5 2.24021 5.55268 2.14645 5.64645C2.05268 5.74021 2 5.86739 2 6C2 6.13261 2.05268 6.25979 2.14645 6.35355C2.24021 6.44732 2.36739 6.5 2.5 6.5H4.5V20.5C4.5 20.8978 4.65804 21.2794 4.93934 21.5607C5.22064 21.842 5.60218 22 6 22H18C18.3978 22 18.7794 21.842 19.0607 21.5607C19.342 21.2794 19.5 20.8978 19.5 20.5V6.5H21.5C21.6326 6.5 21.7598 6.44732 21.8536 6.35355C21.9473 6.25979 22 6.13261 22 6C22 5.86739 21.9473 5.74021 21.8536 5.64645C21.7598 5.55268 21.6326 5.5 21.5 5.5ZM9 17C9 17.1326 8.94732 17.2598 8.85355 17.3536C8.75979 17.4473 8.63261 17.5 8.5 17.5C8.36739 17.5 8.24021 17.4473 8.14645 17.3536C8.05268 17.2598 8 17.1326 8 17V10C8 9.86739 8.05268 9.74021 8.14645 9.64645C8.24021 9.55268 8.36739 9.5 8.5 9.5C8.63261 9.5 8.75979 9.55268 8.85355 9.64645C8.94732 9.74021 9 9.86739 9 10V17ZM12.5 18C12.5 18.1326 12.4473 18.2598 12.3536 18.3536C12.2598 18.4473 12.1326 18.5 12 18.5C11.8674 18.5 11.7402 18.4473 11.6464 18.3536C11.5527 18.2598 11.5 18.1326 11.5 18V9C11.5 8.86739 11.5527 8.74021 11.6464 8.64645C11.7402 8.55268 11.8674 8.5 12 8.5C12.1326 8.5 12.2598 8.55268 12.3536 8.64645C12.4473 8.74021 12.5 8.86739 12.5 9V18ZM16 17C16 17.1326 15.9473 17.2598 15.8536 17.3536C15.7598 17.4473 15.6326 17.5 15.5 17.5C15.3674 17.5 15.2402 17.4473 15.1464 17.3536C15.0527 17.2598 15 17.1326 15 17V10C15 9.86739 15.0527 9.74021 15.1464 9.64645C15.2402 9.55268 15.3674 9.5 15.5 9.5C15.6326 9.5 15.7598 9.55268 15.8536 9.64645C15.9473 9.74021 16 9.86739 16 10V17Z" fill="white"/>
</svg>
