<svg width="19" height="23" viewBox="0 0 19 23" fill="none" xmlns="http://www.w3.org/2000/svg">
<path d="M0.208649 6.58597e-05C0.0909513 0.022532 -0.00207656 0.137019 3.52538e-05 0.256821V16.1756C4.68078e-05 16.31 0.122356 16.4323 0.256791 16.4323H5.64865V21.8242C5.64867 21.9586 5.77098 22.0809 5.90541 22.0809H11.554C11.6896 22.0835 11.8142 21.9597 11.8142 21.8242C11.8142 21.6886 11.6896 21.5656 11.554 21.5674H6.16217V6.16216H15.1486V9.24321C15.1486 9.37765 15.2709 9.49996 15.4054 9.49997H18.4864V21.5674H13.0946C12.959 21.5648 12.8344 21.6886 12.8344 21.8242C12.8344 21.9597 12.959 22.0827 13.0946 22.0809H18.7432C18.8776 22.0809 18.9999 21.9586 18.9999 21.8242V8.98646C19.0015 8.91866 18.9749 8.85064 18.9277 8.80192L15.8467 5.72087C15.7979 5.6737 15.7299 5.64708 15.6621 5.64865H13.3513V3.33787C13.3529 3.27007 13.3263 3.20205 13.2791 3.15333L10.198 0.0722783C10.1493 0.0251124 10.0813 -0.00150548 10.0135 6.58597e-05C6.74622 6.58597e-05 3.47292 6.58597e-05 0.208649 6.58597e-05ZM0.513546 0.513577H9.49999V3.59463C9.5 3.72906 9.62231 3.85137 9.75674 3.85138H12.8378V5.64865C10.5195 5.64865 8.19792 5.64865 5.88134 5.64865C5.75512 5.66054 5.64811 5.77863 5.64865 5.90541V15.9188H0.513546V0.513577ZM10.0135 0.625907L12.7255 3.33787H10.0135V0.625907ZM15.6621 6.27449L18.3741 8.98646H15.6621V6.27449Z" fill="white"/>
</svg>
