<svg width="18" height="18" viewBox="0 0 18 18" fill="none" xmlns="http://www.w3.org/2000/svg">
<path d="M17.6327 9.6035C17.4227 9.6035 17.2391 9.78717 17.2391 9.99708V14.4315C17.2391 16.0058 15.9534 17.2653 14.4052 17.2653H3.59475C2.02041 17.2653 0.760933 15.9796 0.760933 14.4315V3.62099C0.760933 2.04665 2.04665 0.787172 3.59475 0.787172H8.02915C8.23907 0.787172 8.42274 0.603498 8.42274 0.393586C8.42274 0.183673 8.23907 0 8.02915 0H3.59475C1.60058 0 0 1.62682 0 3.59475V14.4052C0 16.3994 1.62682 18 3.59475 18H14.4052C16.3994 18 18 16.3732 18 14.4052V9.99708C18 9.78717 17.8426 9.6035 17.6327 9.6035Z" fill="white"/>
<path d="M7.74034 7.50441L6.84821 10.7318C6.79573 10.9417 6.90069 11.1516 7.1106 11.2041C7.16308 11.2304 7.2418 11.2304 7.32051 11.2041L10.5217 10.312C10.5742 10.2858 10.6529 10.2595 10.7054 10.207L17.2914 3.64727C18.0785 2.86009 18.0785 1.54814 17.2914 0.760969C16.8978 0.367383 16.373 0.157471 15.822 0.157471C15.822 0.157471 15.822 0.157471 15.7957 0.157471C15.2447 0.157471 14.7462 0.367383 14.3788 0.760969L7.81906 7.32074C7.79282 7.37321 7.76658 7.42569 7.74034 7.50441ZM14.9561 1.28575C15.5071 0.839687 16.2943 0.892165 16.7403 1.41695C17.1602 1.91549 17.1602 2.5977 16.7403 3.07001L10.443 9.36738L8.65871 7.58313L14.9561 1.28575ZM9.73451 9.78721L7.7141 10.312L8.29136 8.34406L9.73451 9.78721Z" fill="white"/>
</svg>
