<svg width="26" height="16" viewBox="0 0 26 16" fill="none" xmlns="http://www.w3.org/2000/svg">
<path d="M12.0247 15.3501C12.9498 15.3501 13.6997 14.6002 13.6997 13.6751C13.6997 12.75 12.9498 12.0001 12.0247 12.0001C11.0997 12.0001 10.3497 12.75 10.3497 13.6751C10.3497 14.6002 11.0997 15.3501 12.0247 15.3501Z" fill="white"/>
<path d="M21.9 15.3501C22.8251 15.3501 23.575 14.6002 23.575 13.6751C23.575 12.75 22.8251 12.0001 21.9 12.0001C20.9749 12.0001 20.225 12.75 20.225 13.6751C20.225 14.6002 20.9749 15.3501 21.9 15.3501Z" fill="white"/>
<path d="M4.25008 15.3501C5.17516 15.3501 5.92508 14.6002 5.92508 13.6751C5.92508 12.75 5.17516 12.0001 4.25008 12.0001C3.325 12.0001 2.57507 12.75 2.57507 13.6751C2.57507 14.6002 3.325 15.3501 4.25008 15.3501Z" fill="white"/>
<path d="M25.9999 2.52502H8.62488V10.3H25.9999V2.52502Z" fill="white"/>
<path d="M25.9999 13.6749V10.7999H8.62488V13.6749H9.97488C9.97488 12.5499 10.8999 11.6249 12.0249 11.6249C13.1499 11.6249 14.0749 12.5499 14.0749 13.6749H19.8249C19.8249 12.5499 20.7499 11.6249 21.8749 11.6249C22.9999 11.6249 23.9249 12.5499 23.9249 13.6749H25.9999Z" fill="white"/>
<path d="M8.02502 13.6751V5.32507H3.12501L0 8.45008V13.6751H2.20001C2.20001 12.5501 3.12501 11.6251 4.25001 11.6251C5.37501 11.6251 6.30002 12.5501 6.30002 13.6751H8.02502Z" fill="white"/>
<path d="M23.7249 2.30001L24.1249 1.6L23.1749 0L21.4999 1.075L22.0749 2.30001H23.7249Z" fill="white"/>
<path d="M19.9004 0.375L19.5754 1.575L19.4254 2.125L19.1754 0.950001L16.7754 0.375L15.3004 1.525L15.2004 1.725L13.0254 0.375L11.5004 2.3H14.9004H15.9754H19.4004H19.4754H21.4754L21.7504 1.675L20.9504 0.375H19.9004Z" fill="white"/>
</svg>
