<svg width="20" height="20" viewBox="0 0 20 20" fill="none" xmlns="http://www.w3.org/2000/svg">
<path d="M10 0C4.48421 0 0 4.46316 0 10C0 15.5158 4.48421 20 10 20C15.5158 20 20 15.5158 20 10C20 4.46316 15.5158 0 10 0ZM1.24211 10C1.24211 5.17895 5.15789 1.24211 10 1.24211C12.1895 1.24211 14.1895 2.0421 15.7263 3.38947L3.38947 15.7263C2.06316 14.1895 1.24211 12.1895 1.24211 10ZM10 18.7368C7.81053 18.7368 5.81053 17.9368 4.27368 16.5895L16.6105 4.25263C17.9368 5.81053 18.7579 7.81053 18.7579 10C18.7579 14.8211 14.8211 18.7368 10 18.7368Z" fill="white"/>
</svg>
