<svg width="30" height="31" viewBox="0 0 30 31" fill="none" xmlns="http://www.w3.org/2000/svg">
<path d="M1.66217 10.83C1.66217 11.152 1.94595 11.4339 2.27028 11.4339H27.7297C28.0541 11.4339 28.3378 11.152 28.3378 10.83C28.3378 10.5079 28.0541 10.2261 27.7297 10.2261H2.27028C1.94595 10.2261 1.66217 10.5079 1.66217 10.83Z" fill="#AAAEB8"/>
<path fill-rule="evenodd" clip-rule="evenodd" d="M8.27029 0.724746C8.27029 0.402668 8.55407 0.12085 8.8784 0.12085C9.24326 0.12085 9.4865 0.402668 9.4865 0.724746V2.13384H20.473V0.724746C20.473 0.402668 20.7568 0.12085 21.0811 0.12085C21.4054 0.12085 21.6892 0.402668 21.6892 0.724746V2.13384H24.973C27.527 2.13384 29.6352 4.22734 29.6352 6.76371V26.0079C29.6352 28.5442 27.527 30.6377 24.973 30.6377H4.9865C2.43245 30.6377 0.324341 28.5442 0.324341 26.0079V6.76371C0.324341 4.22734 2.43245 2.13384 4.9865 2.13384H8.27029V0.724746ZM20.5135 4.75072V3.34163H9.4865V4.75072C9.4865 5.0728 9.20272 5.35462 8.8784 5.35462C8.55407 5.35462 8.27029 5.0728 8.27029 4.75072V3.34163H4.9865C3.0811 3.34163 1.54056 4.8715 1.54056 6.76371V26.0079C1.54056 27.9001 3.0811 29.4299 4.9865 29.4299H25.0135C26.9189 29.4299 28.4595 27.9001 28.4595 26.0079V6.76371C28.4595 4.8715 26.9189 3.34163 25.0135 3.34163H21.7297V4.75072C21.7297 5.0728 21.446 5.35462 21.1216 5.35462C20.7973 5.35462 20.5135 5.0728 20.5135 4.75072Z" fill="#AAAEB8"/>
<path d="M11.5135 15.6207C11.5135 15.5805 11.473 15.5402 11.473 15.5C11.4324 15.4597 11.4324 15.4195 11.3919 15.4195C11.1486 15.1779 10.7432 15.1779 10.5405 15.4195C10.5 15.4597 10.5 15.5 10.4594 15.5C10.4594 15.5402 10.4189 15.5805 10.4189 15.6207C10.4189 15.661 10.3784 15.7013 10.3784 15.7415C10.3784 15.7818 10.3784 15.822 10.3784 15.8623C10.3784 16.0233 10.4189 16.1844 10.5405 16.3052C10.5811 16.3454 10.6621 16.3857 10.7432 16.4259C10.8243 16.4662 10.9054 16.4662 10.9865 16.4662C11.1486 16.4662 11.3108 16.3857 11.4324 16.3052C11.554 16.1844 11.5946 16.0233 11.5946 15.8623C11.5946 15.822 11.5946 15.7818 11.5946 15.7415C11.554 15.661 11.5135 15.6207 11.5135 15.6207Z" fill="#AAAEB8"/>
<path d="M15.3243 15.339C15.3243 15.2988 15.2838 15.2988 15.2433 15.2988C15.2027 15.2988 15.1622 15.2585 15.1216 15.2585C14.9189 15.2183 14.7162 15.2988 14.5541 15.4196C14.4324 15.5403 14.3919 15.7014 14.3919 15.8624C14.3919 16.0235 14.4324 16.1845 14.5541 16.3053C14.6757 16.4261 14.8379 16.4663 15 16.4663C15.1622 16.4663 15.3243 16.3858 15.446 16.3053C15.5676 16.1845 15.6081 16.0235 15.6081 15.8624C15.6081 15.7014 15.527 15.5403 15.446 15.4196C15.4054 15.3793 15.3649 15.339 15.3243 15.339Z" fill="#AAAEB8"/>
<path d="M19.3784 15.339C19.3784 15.2988 19.3378 15.2988 19.2973 15.2988C19.2567 15.2988 19.2162 15.2585 19.1757 15.2585C18.9729 15.2183 18.7702 15.2988 18.6081 15.4196C18.4865 15.5403 18.4459 15.7014 18.4459 15.8624C18.4459 16.0235 18.527 16.1845 18.6081 16.3053C18.6486 16.3455 18.7297 16.3858 18.8108 16.4261C18.8919 16.4663 18.9729 16.4663 19.054 16.4663C19.2162 16.4663 19.3784 16.3858 19.5 16.3053C19.6216 16.1845 19.6621 16.0235 19.6621 15.8624C19.6621 15.7014 19.5811 15.5403 19.5 15.4196C19.4594 15.3793 19.4189 15.339 19.3784 15.339Z" fill="#AAAEB8"/>
<path d="M23.6757 15.6209C23.6757 15.5806 23.6351 15.5403 23.6351 15.5001C23.5946 15.4598 23.5946 15.4196 23.554 15.4196C23.4324 15.2988 23.1892 15.2183 23.027 15.2585C22.9865 15.2585 22.9459 15.2988 22.9054 15.2988C22.8649 15.2988 22.8243 15.339 22.7838 15.339C22.7432 15.339 22.7027 15.3793 22.7027 15.4196C22.6621 15.4598 22.6621 15.5001 22.6216 15.5001C22.6216 15.5403 22.5811 15.5806 22.5811 15.6209C22.5811 15.6611 22.5405 15.7014 22.5405 15.7416C22.5405 15.7819 22.5405 15.8222 22.5405 15.8624C22.5405 15.9429 22.5405 16.0235 22.5811 16.104C22.6216 16.1845 22.6621 16.2248 22.7027 16.3053C22.7432 16.3455 22.8243 16.3858 22.9054 16.4261C22.9865 16.4663 23.0676 16.4663 23.1486 16.4663C23.2297 16.4663 23.3108 16.4663 23.3919 16.4261C23.473 16.3858 23.554 16.3455 23.5946 16.3053C23.6351 16.265 23.6757 16.1845 23.7162 16.104C23.7567 16.0235 23.7567 15.9429 23.7567 15.8624C23.7567 15.8222 23.7567 15.7819 23.7567 15.7416C23.7162 15.6611 23.6757 15.6209 23.6757 15.6209Z" fill="#AAAEB8"/>
<path d="M7.21625 19.3649C7.21625 19.3247 7.17571 19.3247 7.13516 19.3247C7.09462 19.3247 7.05408 19.2844 7.01354 19.2844C6.93246 19.2844 6.85138 19.2844 6.7703 19.2844C6.72976 19.2844 6.68922 19.3247 6.64868 19.3247C6.60814 19.3247 6.5676 19.3649 6.52706 19.3649C6.48652 19.3649 6.44598 19.4052 6.44598 19.4455C6.32435 19.5662 6.28381 19.7273 6.28381 19.8883C6.28381 20.0494 6.36489 20.2104 6.44598 20.3312C6.48652 20.3714 6.5676 20.4117 6.64868 20.452C6.72976 20.4922 6.81084 20.4922 6.89192 20.4922C6.973 20.4922 7.05408 20.4922 7.13516 20.452C7.21625 20.4117 7.29733 20.3714 7.33787 20.3312C7.45949 20.2104 7.50003 20.0494 7.50003 19.8883C7.50003 19.7273 7.41895 19.5662 7.33787 19.4455C7.29733 19.4052 7.25679 19.3649 7.21625 19.3649Z" fill="#AAAEB8"/>
<path d="M11.5135 19.6469C11.5135 19.6066 11.473 19.5664 11.473 19.5261C11.4324 19.4858 11.4324 19.4456 11.3919 19.4456C11.1486 19.204 10.7432 19.204 10.5405 19.4456C10.4189 19.5664 10.3784 19.7274 10.3784 19.8884C10.3784 19.9689 10.3784 20.0495 10.4189 20.13C10.4594 20.2105 10.5 20.2508 10.5405 20.3313C10.6621 20.4521 10.8243 20.4923 10.9865 20.4923C11.1486 20.4923 11.3108 20.4118 11.4324 20.3313C11.473 20.291 11.5135 20.2105 11.554 20.13C11.5946 20.0495 11.5946 19.9689 11.5946 19.8884C11.5946 19.8482 11.5946 19.8079 11.5946 19.7677C11.554 19.6871 11.5135 19.6469 11.5135 19.6469Z" fill="#AAAEB8"/>
<path d="M15.5676 19.6467C15.5676 19.6065 15.527 19.5662 15.527 19.526C15.4865 19.4857 15.4865 19.4454 15.446 19.4454C15.4054 19.4052 15.4054 19.4052 15.3649 19.3649C15.3243 19.3247 15.2838 19.3247 15.2433 19.3247C15.2027 19.3247 15.1622 19.2844 15.1216 19.2844C14.9189 19.2441 14.7162 19.3247 14.5541 19.4454C14.5135 19.4857 14.5135 19.526 14.473 19.526C14.473 19.5662 14.4324 19.6065 14.4324 19.6467C14.4324 19.687 14.3919 19.7273 14.3919 19.7675C14.3919 19.8078 14.3919 19.848 14.3919 19.8883C14.3919 20.0493 14.4324 20.2104 14.5541 20.3312C14.6757 20.4519 14.8379 20.4922 15 20.4922C15.1622 20.4922 15.3243 20.4117 15.446 20.3312C15.5676 20.2104 15.6081 20.0493 15.6081 19.8883C15.6081 19.848 15.6081 19.8078 15.6081 19.7675C15.6081 19.687 15.5676 19.6467 15.5676 19.6467Z" fill="#AAAEB8"/>
<path d="M19.6216 19.6467C19.6216 19.6065 19.5811 19.5662 19.5811 19.526C19.5405 19.4857 19.5405 19.4454 19.5 19.4454C19.4594 19.4052 19.4594 19.4052 19.4189 19.3649C19.3784 19.3649 19.3378 19.3247 19.2973 19.3247C19.2567 19.3247 19.2162 19.2844 19.1757 19.2844C18.9729 19.2441 18.7702 19.3247 18.6081 19.4454C18.5675 19.4857 18.5675 19.526 18.527 19.526C18.527 19.5662 18.4865 19.6065 18.4865 19.6467C18.4865 19.687 18.4459 19.7273 18.4459 19.7675C18.4459 19.8078 18.4459 19.848 18.4459 19.8883C18.4459 19.9688 18.4459 20.0493 18.4865 20.1299C18.527 20.2104 18.5675 20.2506 18.6081 20.3312C18.6486 20.3714 18.7297 20.4117 18.8108 20.4519C18.8919 20.4922 18.9729 20.4922 19.054 20.4922C19.2162 20.4922 19.3784 20.4117 19.5 20.3312C19.6216 20.2104 19.6621 20.0493 19.6621 19.8883C19.6621 19.848 19.6621 19.8078 19.6621 19.7675C19.6621 19.687 19.6216 19.6467 19.6216 19.6467Z" fill="#AAAEB8"/>
<path d="M23.6757 19.6468C23.6757 19.6065 23.6351 19.5662 23.6351 19.526C23.5946 19.4857 23.5946 19.4455 23.554 19.4455C23.3108 19.2039 22.9054 19.2442 22.7027 19.4455C22.6621 19.4857 22.6621 19.526 22.6216 19.526C22.6216 19.5662 22.5811 19.6065 22.5811 19.6468C22.5811 19.687 22.5405 19.7273 22.5405 19.7675C22.5405 19.8078 22.5405 19.8481 22.5405 19.8883C22.5405 19.9688 22.5405 20.0494 22.5811 20.1299C22.6216 20.2104 22.6621 20.2507 22.7027 20.3312C22.7432 20.3714 22.8243 20.4117 22.9054 20.452C22.9865 20.4922 23.0676 20.4922 23.1486 20.4922C23.2297 20.4922 23.3108 20.4922 23.3919 20.452C23.473 20.4117 23.554 20.3714 23.5946 20.3312C23.6351 20.2909 23.6757 20.2104 23.7162 20.1299C23.7567 20.0494 23.7567 19.9688 23.7567 19.8883C23.7567 19.8481 23.7567 19.8078 23.7567 19.7675C23.7162 19.687 23.6757 19.6468 23.6757 19.6468Z" fill="#AAAEB8"/>
<path d="M6.7703 23.3104C6.72976 23.3104 6.68922 23.3507 6.64868 23.3507C6.60814 23.3507 6.5676 23.3909 6.52706 23.3909C6.48652 23.3909 6.44598 23.4312 6.44598 23.4715C6.32435 23.5922 6.28381 23.7533 6.28381 23.9143C6.28381 24.0754 6.36489 24.2364 6.44598 24.3572C6.48652 24.3974 6.5676 24.4377 6.64868 24.478C6.72976 24.5182 6.81084 24.5182 6.89192 24.5182C6.973 24.5182 7.05408 24.5182 7.13516 24.478C7.21625 24.4377 7.29733 24.3974 7.33787 24.3572C7.45949 24.2364 7.50003 24.0754 7.50003 23.9143C7.50003 23.7533 7.41895 23.5922 7.33787 23.4715C7.17571 23.3104 6.973 23.2702 6.7703 23.3104Z" fill="#AAAEB8"/>
<path d="M10.5 23.4715C10.3784 23.5922 10.3378 23.7533 10.3378 23.9143C10.3378 24.0753 10.3784 24.2364 10.5 24.3572C10.6216 24.4779 10.7838 24.5182 10.9459 24.5182C11.1081 24.5182 11.2703 24.4377 11.3919 24.3572C11.5135 24.2364 11.554 24.0753 11.554 23.9143C11.554 23.7533 11.473 23.5922 11.3919 23.4715C11.1486 23.2299 10.7432 23.2299 10.5 23.4715Z" fill="#AAAEB8"/>
<path d="M15.3243 23.3908C15.3243 23.3505 15.2838 23.3505 15.2433 23.3505C15.2027 23.3505 15.1622 23.3103 15.1216 23.3103C14.9189 23.27 14.7162 23.3505 14.5541 23.4713C14.4324 23.5921 14.3919 23.7531 14.3919 23.9142C14.3919 24.0752 14.4324 24.2363 14.5541 24.357C14.6757 24.4778 14.8379 24.5181 15 24.5181C15.1622 24.5181 15.3243 24.4376 15.446 24.357C15.5676 24.2363 15.6081 24.0752 15.6081 23.9142C15.6081 23.7531 15.527 23.5921 15.446 23.4713C15.4054 23.4311 15.3649 23.3908 15.3243 23.3908Z" fill="#AAAEB8"/>
<path d="M19.3784 23.3908C19.3784 23.3505 19.3378 23.3505 19.2973 23.3505C19.2567 23.3505 19.2162 23.3103 19.1757 23.3103C18.9729 23.27 18.7702 23.3505 18.6081 23.4713C18.4865 23.5921 18.4459 23.7531 18.4459 23.9142C18.4459 23.9947 18.4459 24.0752 18.4865 24.1557C18.527 24.2363 18.5675 24.2765 18.6081 24.357C18.6486 24.3973 18.7297 24.4376 18.8108 24.4778C18.8919 24.5181 18.9729 24.5181 19.054 24.5181C19.2162 24.5181 19.3784 24.4376 19.5 24.357C19.5405 24.3168 19.5811 24.2363 19.6216 24.1557C19.6621 24.0752 19.6621 23.9947 19.6621 23.9142C19.6621 23.7531 19.5811 23.5921 19.5 23.4713C19.4594 23.4311 19.4189 23.3908 19.3784 23.3908Z" fill="#AAAEB8"/>
</svg>
