<svg width="116" height="75" viewBox="0 0 116 75" fill="none" xmlns="http://www.w3.org/2000/svg">
<rect width="116" height="75" rx="4" fill="#F5F5F5"/>
<path d="M67.4769 11.0521L67.1889 11L66.8986 11.0509L14 20.3125V50.717L66.8986 64.9246L67.1137 64.9824L67.4249 65.0657C67.4283 65.0784 67.4318 65.09 67.4341 65.1016L99 57.5461V16.7719L67.4769 11.0521ZM66.8986 64.3254L14.5783 50.274V20.7983L66.8986 11.6385V64.3254ZM98.4205 57.0904L67.4769 64.4966V11.6396L98.4205 17.2542V57.0904Z" fill="#9B9B9B"/>
<path d="M83.7023 59.4613L84.5605 59.2612L85.1389 59.1259L97.8624 56.159V44.5459V43.9641V18.9705L69.6821 15.0701V62.7324L83.1239 59.5967L83.7023 59.4613ZM86.6946 18.0081L97.2829 19.4736V21.1994L86.6946 19.9895V18.0081ZM86.6946 20.5713L97.2829 21.7812V29.9509L86.6946 29.8398V20.5713ZM86.6946 30.4193L97.2829 30.5304V32.4319H86.6946V30.4193ZM86.6946 33.0103H97.2829V42.3563L86.6946 42.974V33.0103ZM86.6946 43.5546L97.2829 42.9369V44.0208L86.6946 45.056V43.5546ZM86.6946 45.6366L97.2829 44.6014V52.7028L86.6946 54.7259V45.6366ZM86.6946 55.3146L97.2829 53.2904V55.6998L86.6946 58.1693V55.3146ZM85.1389 55.6119V55.0243V45.7882V45.2064V43.646V43.0653V33.0103V32.4319V30.4031V29.8248V20.3932V19.8114V17.793L86.1174 17.9283V19.9236V20.5054V29.8352V30.4135V32.4319V33.0103V43.0087V43.5893V45.1115V45.6933V54.8369V55.4245V58.3035L85.1389 58.5313V55.6119ZM83.7023 55.8872V55.2996V45.9293V45.3475V43.7304V43.1498V33.0103V32.4319V30.3881V29.8097V20.2289V19.6471V17.594L84.5605 17.7132V19.7454V20.3273V29.819V30.3973V32.4319V33.0103V43.1V43.6807V45.263V45.8448V55.1342V55.7229V58.6678L83.7023 58.8679V55.8872ZM70.2593 15.7341L83.1228 17.5142V19.5812L70.2593 18.111V15.7341ZM70.2593 18.6929L83.1228 20.163V29.8028L70.2593 29.6686V18.6929ZM70.2593 30.2481L83.1228 30.3823V32.4319H70.2593V30.2481ZM70.2593 33.0103H83.1228V43.1833L70.2593 43.934V33.0103ZM70.2593 44.5147L83.1228 43.764V45.4042L70.2593 46.6615V44.5147ZM70.2593 47.2421L83.1228 45.986V55.4083L70.2593 57.8674V47.2421ZM70.2593 58.455L83.1228 55.9971V59.0021L70.2593 62.0026V58.455Z" fill="#9B9B9B"/>
<path d="M48.5267 57.9398L63.2512 61.8402L63.6144 61.9373V14.8256L60.9691 15.2154L60.3908 15.301L56.9404 15.81L56.362 15.8956L52.7208 16.4323L52.1425 16.5178L48.743 17.0199L48.1646 17.1054L45.1098 17.5566L44.5315 17.6421L41.0291 18.1592L40.4507 18.2448L36.636 18.8081L36.0576 18.8937L33.2446 19.3089L32.6662 19.3945L29.837 19.8121L29.2586 19.8977L26.9661 20.2354L26.3878 20.321L23.9032 20.6877H23.5874V20.7351L15.2373 21.967L14.991 22.004V49.06L48.1658 57.8485L48.5267 57.9398ZM60.9691 15.8007L63.0361 15.4953V61.1843L60.9691 60.6361V15.8007ZM56.9404 16.3952L60.3908 15.8863V60.4857L56.9404 59.5708V16.3952ZM52.7196 17.0175L56.3609 16.4808V59.4181L52.7196 58.4534V17.0175ZM48.7418 17.604L52.1413 17.102V58.2984L48.7418 57.3985V17.604ZM16.6161 48.8888L15.567 48.6112V22.4991L16.6161 22.3441V48.8888ZM18.5651 49.4047L17.1933 49.0426V22.2596L18.5651 22.0572V49.4047ZM21.1977 50.1033L19.1435 49.5585V21.9716L21.1977 21.6686V50.1033ZM23.5851 50.7349L21.7761 50.2548V21.583L23.5851 21.3158V50.7349ZM26.3866 51.4763L24.1635 50.8875V21.2313L26.3866 20.9028V51.4763ZM29.2575 52.2374L26.9649 51.6301V20.8172L29.2575 20.4795V52.2374ZM32.6662 53.1408L29.837 52.3912V20.3939L32.6662 19.9763V53.1408ZM36.0565 54.0383L33.2434 53.2923V19.8907L36.0565 19.4755V54.0383ZM40.4496 55.202L36.6348 54.1922V19.3911L40.4496 18.8289V55.202ZM44.5303 56.2823L41.0279 55.3547V18.7422L44.5303 18.2263V56.2823ZM45.1087 18.1407L48.1635 17.6896V57.2447L45.1087 56.4361V18.1407Z" fill="#9B9B9B"/>
</svg>
