<svg width="28" height="28" viewBox="0 0 28 28" fill="none" xmlns="http://www.w3.org/2000/svg">
<path fill-rule="evenodd" clip-rule="evenodd" d="M14 28C21.732 28 28 21.732 28 14C28 6.26801 21.732 0 14 0C6.26801 0 0 6.26801 0 14C0 21.732 6.26801 28 14 28Z" fill="#444444"/>
<mask id="mask0" mask-type="alpha" maskUnits="userSpaceOnUse" x="0" y="0" width="28" height="28">
<path fill-rule="evenodd" clip-rule="evenodd" d="M14 28C21.732 28 28 21.732 28 14C28 6.26801 21.732 0 14 0C6.26801 0 0 6.26801 0 14C0 21.732 6.26801 28 14 28Z" fill="white"/>
</mask>
<g mask="url(#mask0)">
<path fill-rule="evenodd" clip-rule="evenodd" d="M14.35 27.9995C20.3423 27.9995 25.2 26.3756 25.2 26.3756C25.0898 20.3143 20.3423 15.3995 14.35 15.3995C8.35771 15.3995 3.5 20.3137 3.5 26.3756C3.5 26.3756 8.35771 27.9995 14.35 27.9995Z" fill="#D8D8D8"/>
</g>
<path fill-rule="evenodd" clip-rule="evenodd" d="M8.40186 9.1C8.40186 6.00721 10.9091 3.5 14.0019 3.5C17.0947 3.5 19.6019 6.00721 19.6019 9.1C19.6019 12.1928 17.0947 14.7 14.0019 14.7C10.9091 14.7 8.40186 12.1928 8.40186 9.1ZM14.0019 5.57407C12.0545 5.57407 10.4759 7.15269 10.4759 9.1C10.4759 11.0473 12.0545 12.6259 14.0019 12.6259C15.9492 12.6259 17.5278 11.0473 17.5278 9.1C17.5278 7.15269 15.9492 5.57407 14.0019 5.57407Z" fill="#979797"/>
</svg>
