<svg width="20" height="19" viewBox="0 0 20 19" fill="none" xmlns="http://www.w3.org/2000/svg">
<path d="M5.50613 10.0403C5.29013 9.82429 5.29013 9.47401 5.50613 9.25802C5.72212 9.04202 6.0724 9.04202 6.2884 9.25802L9.44687 12.4165V0.55327C9.44687 0.247657 9.69453 0 10.0001 0C10.3058 0 10.5534 0.247657 10.5534 0.55327V12.4162L13.7119 9.25774C13.9279 9.04174 14.2782 9.04174 14.4942 9.25774C14.7101 9.47373 14.7101 9.82401 14.4942 10.04L10.3914 14.143C10.3648 14.1696 10.336 14.1931 10.3055 14.2131C10.28 14.2301 10.2532 14.2431 10.2257 14.2553C10.2204 14.2578 10.2153 14.2615 10.2096 14.2637C10.1805 14.2756 10.1503 14.2838 10.12 14.2906C10.1155 14.2917 10.1112 14.2937 10.1067 14.2946C10.0717 14.3013 10.0358 14.305 10.0001 14.305C9.99788 14.305 9.99562 14.3045 9.99336 14.3045C9.96 14.3042 9.92664 14.3011 9.89384 14.2948C9.88875 14.2937 9.88366 14.2914 9.87857 14.2903C9.84861 14.2835 9.81864 14.2753 9.79008 14.2635C9.7898 14.2632 9.78924 14.2632 9.78895 14.2632C9.78754 14.2626 9.78669 14.2615 9.78528 14.2609C9.74259 14.2428 9.70301 14.2177 9.66512 14.1885C9.65495 14.1806 9.64534 14.173 9.63572 14.1645C9.62724 14.1569 9.61763 14.1512 9.60943 14.143L5.50613 10.0403ZM19.447 9.05531C19.1414 9.05531 18.8937 9.30297 18.8937 9.60858V14.832C18.8937 16.2634 17.7292 17.4276 16.2979 17.4276H3.70242C2.27104 17.4276 1.10654 16.2631 1.10654 14.832V9.52292C1.10654 9.21731 0.858883 8.96965 0.55327 8.96965C0.247657 8.96965 0 9.21731 0 9.52292V14.832C0 16.8735 1.66066 18.5341 3.70213 18.5341H16.2979C18.3393 18.5341 20 16.8735 20 14.832V9.6083C20 9.30297 19.7523 9.05531 19.447 9.05531Z" fill="black"/>
</svg>
