<svg width="21" height="21" viewBox="0 0 21 21" fill="none" xmlns="http://www.w3.org/2000/svg">
<path d="M19.4381 13.6257C19.4816 13.5605 19.4163 13.4952 19.3511 13.5387C18.8946 13.7779 17.938 14.1257 16.1988 14.1257C16.1118 14.1257 13.1551 14.1257 13.1117 14.1257C13.0247 14.1257 12.9812 14.1257 12.9595 14.0822C12.9377 14.0605 12.9377 13.9953 12.9377 13.93V12.6474C12.9377 12.5821 12.8508 12.5604 12.829 12.6039C12.829 12.6039 10.1332 15.8432 9.74192 16.2997C9.72018 16.3432 9.72018 16.3867 9.74192 16.4084C10.1332 16.8867 12.8073 20.126 12.8073 20.126C12.8508 20.1695 12.9377 20.1478 12.9377 20.0825V18.7564C12.9377 18.6694 12.9595 18.6042 13.0682 18.6042C13.0682 18.6042 13.4595 18.6042 14.8944 18.6042C16.2857 18.6042 16.764 18.2346 17.8076 16.4737L19.4381 13.6257Z" fill="#0721FD"/>
<path d="M19.8511 12.2995C20.0903 11.8865 20.0468 11.3865 19.7207 10.8429L17.938 7.73408C17.9162 7.71234 17.8728 7.6906 17.851 7.71234L14.0247 9.90811C14.003 9.92985 13.9813 9.97333 14.003 9.99507L16.0031 13.4735C16.0248 13.4953 16.0466 13.517 16.0683 13.517C17.5684 13.517 19.3294 13.1692 19.8511 12.2995Z" fill="#0721FD"/>
<path d="M2.52414 16.9737C2.56762 17.0389 2.65458 17.0172 2.65458 16.952C2.67632 16.4302 2.85024 15.4301 3.71985 13.9301C3.71985 13.9083 5.26341 11.2777 5.26341 11.256C5.30689 11.1908 5.32863 11.1473 5.37211 11.1473C5.41559 11.1473 5.45907 11.169 5.52429 11.1908L6.63305 11.8213C6.69827 11.843 6.74175 11.7995 6.72001 11.7343C6.72001 11.7343 5.26341 7.7993 5.04601 7.21232C5.02427 7.16884 4.98079 7.14709 4.93731 7.14709C4.35032 7.2558 0.197925 7.95148 0.197925 7.95148C0.132704 7.95148 0.110964 8.06019 0.176185 8.08193L1.32842 8.73413C1.39364 8.77762 1.45886 8.8211 1.39364 8.9298C1.39364 8.9298 1.19798 9.2559 0.480549 10.5168C-0.23688 11.7126 -0.17166 12.3213 0.850133 14.0822L2.52414 16.9737Z" fill="#0721FD"/>
<path d="M3.45898 17.9955C3.69812 18.4086 4.13292 18.626 4.78513 18.626H8.37228C8.41576 18.626 8.4375 18.6042 8.4375 18.5607V14.1475C8.4375 14.104 8.41576 14.0822 8.37228 14.0822H4.37207C4.35033 14.0822 4.32859 14.104 4.30685 14.1257C3.5242 15.4084 2.95895 17.1041 3.45898 17.9955Z" fill="#0721FD"/>
<path d="M8.11136 0.494568C8.04614 0.494568 8.0244 0.581529 8.06788 0.62501C8.52442 0.907633 9.28533 1.55984 10.1549 3.05992C10.1549 3.08166 11.6985 5.71224 11.6985 5.73398C11.742 5.7992 11.7637 5.84268 11.742 5.88616C11.7202 5.92964 11.6985 5.95138 11.6115 5.99486L10.5028 6.62533C10.4376 6.64707 10.4593 6.73403 10.5245 6.75577C10.5245 6.75577 14.6769 7.4732 15.2639 7.56016C15.3074 7.56016 15.3509 7.53842 15.3726 7.49494C15.59 6.92969 17.0684 2.97296 17.0684 2.97296C17.0901 2.90774 17.0249 2.84252 16.9597 2.886L15.8074 3.53821C15.7422 3.58169 15.677 3.60343 15.6118 3.49473C15.6118 3.49473 15.4161 3.14688 14.6987 1.90769C14.0465 0.733711 13.4812 0.494568 11.4376 0.494568H8.11136Z" fill="#0721FD"/>
<path d="M6.7635 0.798935C6.28521 0.798935 5.87215 1.08156 5.54604 1.64681L3.76334 4.75567C3.7416 4.77741 3.76334 4.82089 3.78508 4.84263L7.61137 7.03839C7.63311 7.06013 7.67659 7.03839 7.69833 7.01665L9.69843 3.53821C9.72017 3.51647 9.72017 3.49473 9.69843 3.47299C8.95927 2.14683 7.78529 0.820675 6.7635 0.798935Z" fill="#0721FD"/>
</svg>
