<svg width="14" height="19" viewBox="0 0 14 19" fill="none" xmlns="http://www.w3.org/2000/svg">
<path d="M1.33936 7.53964L6.21743 2.66156V14.7745C6.21743 14.9822 6.29993 15.1814 6.44677 15.3282C6.59361 15.475 6.79277 15.5575 7.00043 15.5575C7.2081 15.5575 7.40726 15.475 7.5541 15.3282C7.70094 15.1814 7.78343 14.9822 7.78343 14.7745V2.66156L12.6615 7.53964C12.7347 7.61221 12.8214 7.66962 12.9168 7.70859C13.0122 7.74755 13.1144 7.7673 13.2174 7.76671C13.4242 7.76687 13.6226 7.68525 13.7694 7.53964C13.8422 7.46692 13.9 7.38057 13.9394 7.28551C13.9788 7.19046 13.9991 7.08857 13.9991 6.98567C13.9991 6.88277 13.9788 6.78088 13.9394 6.68583C13.9 6.59077 13.8422 6.50442 13.7694 6.4317L7.55636 0.214696L7.435 0.116821L7.39193 0.0855009L7.31363 0.0463509C7.28828 0.0362029 7.26208 0.0283419 7.23533 0.0228612L7.15312 0.015031C7.05231 -0.00501034 6.94855 -0.00501034 6.84775 0.015031L6.78119 0.0346057C6.75444 0.0400864 6.72824 0.0479482 6.70289 0.0580961L6.62459 0.0972454L6.56587 0.128566L6.4445 0.226441L0.231416 6.4317C0.0844935 6.57862 0.00195312 6.77789 0.00195312 6.98567C0.00195312 7.19345 0.0844935 7.39272 0.231416 7.53964C0.378338 7.68656 0.577608 7.7691 0.785387 7.7691C0.993166 7.7691 1.19244 7.68656 1.33936 7.53964Z" fill="black"/>
<path d="M13.217 17.2688H0.782998C0.575334 17.2688 0.376176 17.3513 0.229336 17.4981C0.0824951 17.645 0 17.8441 0 18.0518C0 18.2595 0.0824951 18.4586 0.229336 18.6055C0.376176 18.7523 0.575334 18.8348 0.782998 18.8348H13.217C13.4247 18.8348 13.6238 18.7523 13.7707 18.6055C13.9175 18.4586 14 18.2595 14 18.0518C14 17.8441 13.9175 17.645 13.7707 17.4981C13.6238 17.3513 13.4247 17.2688 13.217 17.2688Z" fill="black"/>
</svg>
