<svg width="22" height="15" viewBox="0 0 22 15" fill="none" xmlns="http://www.w3.org/2000/svg">
<path fill-rule="evenodd" clip-rule="evenodd" d="M1.22222 0H20.7778C21.4528 0 22 0.547208 22 1.22222C22 1.89724 21.4528 2.44444 20.7778 2.44444H1.22222C0.547207 2.44444 0 1.89724 0 1.22222C0 0.547208 0.547207 0 1.22222 0ZM4.88889 6.11111H17.1111C17.7861 6.11111 18.3333 6.65832 18.3333 7.33333C18.3333 8.00835 17.7861 8.55556 17.1111 8.55556H4.88889C4.21387 8.55556 3.66667 8.00835 3.66667 7.33333C3.66667 6.65832 4.21387 6.11111 4.88889 6.11111ZM9.77778 12.2222H12.2222C12.8972 12.2222 13.4444 12.7694 13.4444 13.4444C13.4444 14.1195 12.8972 14.6667 12.2222 14.6667H9.77778C9.10276 14.6667 8.55556 14.1195 8.55556 13.4444C8.55556 12.7694 9.10276 12.2222 9.77778 12.2222Z" fill="white"/>
</svg>
