<svg width="30" height="30" viewBox="0 0 30 30" fill="none" xmlns="http://www.w3.org/2000/svg">
<ellipse cx="15" cy="14.5588" rx="15" ry="14.5588" fill="#23BC00"/>
<path d="M21.8011 10.1879C21.6783 10.0674 21.5131 10 21.3411 10C21.1691 10 21.0039 10.0674 20.8811 10.1879L13.0823 17.9866L9.18296 14.0872C9.12646 14.0119 9.05444 13.9496 8.97177 13.9045C8.8891 13.8595 8.79771 13.8327 8.70379 13.826C8.60986 13.8193 8.51561 13.8329 8.42739 13.8658C8.33918 13.8988 8.25907 13.9503 8.19249 14.0168C8.12591 14.0834 8.07441 14.1635 8.04149 14.2517C8.00856 14.34 7.99498 14.4342 8.00165 14.5281C8.00833 14.6221 8.03511 14.7135 8.08018 14.7961C8.12525 14.8788 8.18755 14.9508 8.26288 15.0073L12.6223 19.3886C12.7451 19.509 12.9103 19.5765 13.0823 19.5765C13.2543 19.5765 13.4195 19.509 13.5424 19.3886L21.8011 11.1298C21.8641 11.0686 21.9141 10.9954 21.9482 10.9145C21.9824 10.8336 22 10.7467 22 10.6589C22 10.571 21.9824 10.4841 21.9482 10.4032C21.9141 10.3223 21.8641 10.2491 21.8011 10.1879Z" fill="white"/>
</svg>
