<svg width="24" height="17" viewBox="0 0 24 17" fill="none" xmlns="http://www.w3.org/2000/svg">
<g clip-path="url(#clip0)">
<path d="M0.320988 7.86857L6.64198 1.06857C7.07097 0.679506 7.89199 0.51857 8.37037 0.968571C8.84259 1.41233 8.82714 2.27325 8.35802 2.71857L3.91358 7.49377L22.8149 7.49377C23.4692 7.49377 24.0001 8.03129 24.0001 8.69377C24.0001 9.35625 23.4692 9.89377 22.8149 9.89377L3.91358 9.89377L8.35802 14.669C8.76233 15.0799 8.83794 15.9705 8.37037 16.419C7.90432 16.8674 7.05248 16.7237 6.64198 16.319L0.320988 9.51897C0.104936 9.28616 0 9.01273 0 8.69397C0.0108026 8.40764 0.128087 8.07637 0.320988 7.86857Z" fill="black"/>
</g>
<defs>
<clipPath id="clip0">
<rect width="24" height="16.6957" fill="white" transform="matrix(1 0 0 -1 0 16.6953)"/>
</clipPath>
</defs>
</svg>
