<svg width="23" height="31" viewBox="0 0 23 31" fill="none" xmlns="http://www.w3.org/2000/svg">
<path fill-rule="evenodd" clip-rule="evenodd" d="M6.27273 2.09091H0V30.3182H23V2.09091H16.7273V4.18182V5.22727H15.6818H7.31818H6.27273V4.18182V2.09091ZM5.54669 7.92826L3.69857 9.77638L3.32895 9.40676L5.17707 7.55864L5.54669 7.92826ZM2.22008 8.29788L3.69857 9.77638L3.32895 10.146L1.85045 8.66751L2.22008 8.29788ZM5.54669 12.1101L3.69857 13.9582L3.32895 13.5886L5.17707 11.7405L5.54669 12.1101ZM2.22008 12.4797L3.69857 13.9582L3.32895 14.3278L1.85045 12.8493L2.22008 12.4797ZM2.09091 15.6818H5.22727V18.8182H2.09091V15.6818ZM2.09091 19.8636H5.22727V23H2.09091V19.8636ZM2.09091 24.0455H5.22727V27.1818H2.09091V24.0455ZM2.61364 16.2045V18.2955H4.70455V16.2045H2.61364ZM2.61364 20.3864V22.4773H4.70455V20.3864H2.61364ZM2.61364 24.5682V26.6591H4.70455V24.5682H2.61364ZM7.31818 8.36364H19.8636V9.40909H7.31818V8.36364ZM7.31818 12.5455H19.8636V13.5909H7.31818V12.5455ZM7.31818 16.7273H19.8636V17.7727H7.31818V16.7273ZM7.31818 20.9091H19.8636V21.9545H7.31818V20.9091ZM7.31818 25.0909H19.8636V26.1364H7.31818V25.0909ZM9.40909 1.04545H7.31818V4.18182H15.6818V1.04545H13.5909V0H9.40909V1.04545Z" fill="#979797"/>
</svg>
