<svg width="10" height="10" viewBox="0 0 10 10" fill="none" xmlns="http://www.w3.org/2000/svg">
<path d="M5.10526 6.01496L1.4592 9.66102C1.1839 9.93631 0.733521 9.93227 0.45324 9.65199C0.172959 9.37171 0.168917 8.92133 0.444212 8.64603L4.09027 4.99997L0.444212 1.35391C0.168917 1.07862 0.172959 0.628235 0.45324 0.347954C0.733521 0.0676738 1.1839 0.0636317 1.4592 0.338926L5.10526 3.98499L8.75132 0.338926C9.02661 0.0636317 9.477 0.0676738 9.75728 0.347954C10.0376 0.628235 10.0416 1.07862 9.7663 1.35391L6.12024 4.99997L9.7663 8.64603C10.0416 8.92133 10.0376 9.37171 9.75728 9.65199C9.477 9.93227 9.02661 9.93631 8.75132 9.66102L5.10526 6.01496Z" fill="white"/>
</svg>
