<svg width="21" height="21" viewBox="0 0 21 21" fill="none" xmlns="http://www.w3.org/2000/svg">
<path fill-rule="evenodd" clip-rule="evenodd" d="M10.5007 0.135742C4.78363 0.135742 0.135742 4.78363 0.135742 10.5007C0.135742 16.2179 4.78363 20.8657 10.5007 20.8657C16.2179 20.8657 20.8657 16.2179 20.8657 10.5007C20.8657 4.78363 16.2179 0.135742 10.5007 0.135742ZM10.5007 16.7851C9.88976 16.7851 9.38787 16.2832 9.38787 15.6722C9.38787 15.0612 9.88976 14.5593 10.5007 14.5593C11.1117 14.5593 11.6136 15.0612 11.6136 15.6722C11.6136 16.2832 11.1336 16.7851 10.5007 16.7851ZM11.3954 11.3957C11.3954 11.2429 11.4827 11.112 11.5918 11.0684C13.272 10.5228 14.254 8.86444 13.9485 7.09694C13.7084 5.70039 12.5519 4.52205 11.1336 4.28202C10.0861 4.08563 9.03874 4.3693 8.25318 5.04576C7.46762 5.70039 7.00938 6.68234 7.00938 7.72975C7.00938 8.20981 7.40216 8.60259 7.88222 8.60259C8.36228 8.60259 8.75506 8.20981 8.75506 7.72975C8.75506 7.22786 8.97327 6.72598 9.40969 6.37684C9.80247 6.04953 10.3262 5.9186 10.8499 6.00588C11.5482 6.13681 12.1155 6.70416 12.2464 7.40243C12.421 8.4062 11.7882 9.14812 11.0681 9.38815C10.2171 9.67182 9.64973 10.4792 9.64973 11.3957V12.5086C9.64973 12.9886 10.0425 13.3814 10.5226 13.3814C11.0026 13.3814 11.3954 12.9886 11.3954 12.5086V11.3957Z" fill="#9B9B9B"/>
</svg>
