<svg width="158" height="135" viewBox="0 0 158 135" fill="none" xmlns="http://www.w3.org/2000/svg">
<g opacity="0.5">
<path opacity="0.5" d="M115.304 9.33966H44.2224V101.547H115.304V9.33966Z" fill="url(#paint0_linear)"/>
</g>
<path d="M114.4 10.0188H45.127V100.189H114.4V10.0188Z" fill="white"/>
<path d="M97.0363 7.63818H62.6711V15.4529H97.0363V7.63818Z" fill="url(#paint1_linear)"/>
<path d="M79.8537 0C77.2003 0 75.0498 2.0683 75.0498 4.61887C75.0498 7.16943 77.2003 9.23774 79.8537 9.23774C82.507 9.23774 84.6576 7.16943 84.6576 4.61887C84.6576 2.0683 82.507 0 79.8537 0ZM79.8537 7.28321C79.2895 7.29705 78.7337 7.15264 78.2574 6.86842C77.7811 6.58421 77.4058 6.1731 77.1796 5.68763C76.9534 5.20217 76.8865 4.66441 76.9875 4.14308C77.0885 3.62174 77.3527 3.14052 77.7465 2.76091C78.1403 2.3813 78.6456 2.12054 79.1981 2.01197C79.7505 1.90339 80.3248 1.95193 80.8477 2.15138C81.3706 2.35083 81.8182 2.69213 82.1335 3.13166C82.4487 3.57119 82.6172 4.08898 82.6174 4.61887C82.6261 5.31595 82.34 5.98784 81.822 6.48726C81.3039 6.98669 80.5961 7.27292 79.8537 7.28321Z" fill="url(#paint2_linear)"/>
<path d="M96.6744 7.64148H63.0327V15.1132H96.6744V7.64148Z" fill="black"/>
<path d="M79.8537 0.3396C78.9236 0.3396 78.0144 0.59854 77.2411 1.08368C76.4678 1.56881 75.865 2.25836 75.5091 3.06511C75.1532 3.87186 75.06 4.75959 75.2415 5.61604C75.4229 6.47248 75.8708 7.25917 76.5285 7.87664C77.1862 8.4941 78.0241 8.9146 78.9363 9.08495C79.8485 9.25531 80.794 9.16788 81.6533 8.83371C82.5126 8.49954 83.2471 7.93365 83.7638 7.20759C84.2805 6.48153 84.5563 5.62792 84.5563 4.75469C84.5563 3.58374 84.0609 2.46074 83.179 1.63275C82.2971 0.80476 81.1009 0.3396 79.8537 0.3396ZM79.8537 7.30186C79.3171 7.30186 78.7926 7.15248 78.3464 6.87259C77.9003 6.5927 77.5525 6.19489 77.3472 5.72945C77.1419 5.26402 77.0881 4.75187 77.1928 4.25777C77.2975 3.76366 77.5559 3.3098 77.9353 2.95357C78.3147 2.59734 78.7982 2.35475 79.3244 2.25647C79.8507 2.15818 80.3962 2.20863 80.892 2.40142C81.3877 2.59421 81.8114 2.92068 82.1095 3.33956C82.4076 3.75844 82.5668 4.25091 82.5668 4.75469C82.5668 5.43025 82.2809 6.07813 81.7721 6.55582C81.2633 7.0335 80.5733 7.30186 79.8537 7.30186Z" fill="black"/>
<path d="M63.2138 24.6226H48.3826V38.5472H63.2138V24.6226Z" fill="url(#paint3_linear)"/>
<path d="M63.2644 52.217H48.4331V66.1415H63.2644V52.217Z" fill="url(#paint4_linear)"/>
<path d="M63.3149 79.4717H48.4836V93.3962H63.3149V79.4717Z" fill="url(#paint5_linear)"/>
<path d="M62.6711 25.1321H48.925V38.0377H62.6711V25.1321Z" fill="#69F0AE"/>
<path d="M62.6711 52.4717H48.925V65.3773H62.6711V52.4717Z" fill="black"/>
<path d="M62.6711 79.8113H48.925V92.717H62.6711V79.8113Z" fill="black"/>
<path d="M90.5557 29.1158H71.7146V30.3503H90.5557V29.1158Z" fill="#E0E0E0"/>
<path d="M102.824 30.9684H71.7146V32.203H102.824V30.9684Z" fill="#E0E0E0"/>
<path d="M100.634 32.8195H71.7146V34.054H100.634V32.8195Z" fill="#E0E0E0"/>
<path d="M90.5557 56.4554H71.7146V57.69H90.5557V56.4554Z" fill="#E0E0E0"/>
<path d="M102.824 58.3081H71.7146V59.5426H102.824V58.3081Z" fill="#E0E0E0"/>
<path d="M100.634 60.1591H71.7146V61.3936H100.634V60.1591Z" fill="#E0E0E0"/>
<path d="M90.5557 83.7951H71.7146V85.0296H90.5557V83.7951Z" fill="#E0E0E0"/>
<path d="M102.824 85.6477H71.7146V86.8822H102.824V85.6477Z" fill="#E0E0E0"/>
<path d="M100.634 87.4987H71.7146V88.7332H100.634V87.4987Z" fill="#E0E0E0"/>
<path d="M52.6782 30.8157L55.1742 32.9655L58.7102 28.0834L59.9582 29.0599L55.1742 34.9183L51.6382 31.208L52.6782 30.8157Z" fill="url(#paint6_linear)"/>
<path d="M53.085 30.9056L55.2554 32.7735L58.3302 28.5283L59.4154 29.3773L55.2554 34.4717L52.1807 31.2452L53.085 30.9056Z" fill="white"/>
<path d="M53.085 58.4151L55.2554 60.283L58.3302 56.0377L59.4154 56.8868L55.2554 61.9811L52.1807 58.7547L53.085 58.4151Z" fill="white"/>
<path d="M53.085 85.9245L55.2554 87.7925L58.3302 83.5472L59.4154 84.3962L55.2554 89.4906L52.1807 86.2642L53.085 85.9245Z" fill="white"/>
<g opacity="0.5">
<path opacity="0.5" d="M117.746 59.6039H118.831" stroke="#69F0AE" stroke-width="5" stroke-miterlimit="10"/>
<path opacity="0.5" d="M120.918 59.6039H144.917" stroke="#69F0AE" stroke-width="5" stroke-miterlimit="10" stroke-dasharray="11.54 11.54"/>
<path opacity="0.5" d="M145.961 59.6038H147.046V58.5849" stroke="#69F0AE" stroke-width="5" stroke-miterlimit="10"/>
<path opacity="0.5" d="M147.046 56.6406V38.1617" stroke="#69F0AE" stroke-width="5" stroke-miterlimit="10" stroke-dasharray="11.45 11.45"/>
<path opacity="0.5" d="M147.046 37.1887V36.1699" stroke="#69F0AE" stroke-width="5" stroke-miterlimit="10"/>
</g>
<path opacity="0.5" d="M41.8712 30.9906H17.6348V52.3868" stroke="#69F0AE" stroke-width="5" stroke-miterlimit="10" stroke-dasharray="12 12"/>
<path opacity="0.5" d="M55.7981 103.84V116.066H91.9719" stroke="#69F0AE" stroke-width="5" stroke-miterlimit="10" stroke-dasharray="12 12"/>
<g opacity="0.5">
<path opacity="0.5" d="M158 18.1852L144.062 7.13214L130.342 18.1614L130.219 18.0969V18.1852H130.125L130.219 18.2344V18.2735V32.5971V32.7737H157.906L157.738 32.6854H158V18.1852Z" fill="url(#paint7_linear)"/>
</g>
<path d="M157.447 32.1792H130.859V18.2547L144.062 7.64148L157.447 18.2547V32.1792Z" fill="white"/>
<path d="M130.678 18.2548L143.881 25.217L157.266 18.2548" fill="#E0E0E0"/>
<g opacity="0.5">
<path opacity="0.5" d="M144.156 25.0421L136.014 29.8868V11.717H152.111V20.9582L144.156 25.0421Z" fill="url(#paint8_linear)"/>
</g>
<path d="M144.153 25.1321L136.375 29.8868V12.0566H151.749V21.1245L144.153 25.1321Z" fill="#FAFAFA"/>
<path opacity="0.05" d="M130.768 32.0943H157.356L130.768 18.1698V32.0943Z" fill="black"/>
<path d="M130.768 32.2642H157.356L130.768 18.3397V32.2642Z" fill="#F5F5F5"/>
<path d="M149.579 14.7736H138.365V15.4528H149.579V14.7736Z" fill="white"/>
<path d="M149.579 16.1321H138.365V16.8114H149.579V16.1321Z" fill="white"/>
<path d="M149.579 17.4906H138.365V18.1698H149.579V17.4906Z" fill="black"/>
<path d="M149.579 18.849H138.365V19.5282H149.579V18.849Z" fill="white"/>
<path d="M149.579 20.2075H138.365V20.8868H149.579V20.2075Z" fill="black"/>
<path opacity="0.05" d="M151.749 21.2264V20.8868L143.838 25.0149L144.053 25.127L151.749 21.2264Z" fill="black"/>
<g opacity="0.5">
<path opacity="0.5" d="M129.316 105.283H97.8538V135H129.316V105.283Z" fill="url(#paint9_linear)"/>
</g>
<path d="M128.598 105.962H98.5735V134.321H128.598V105.962Z" fill="#F5F5F5"/>
<path d="M126.97 106.811H100.563V128.547H126.97V106.811Z" fill="white"/>
<path d="M126.97 121.585C119.672 121.585 113.767 119.838 113.767 117.679C106.469 117.679 100.563 119.199 100.563 121.075V129.226H126.97V121.585Z" fill="#E0E0E0"/>
<path d="M122.629 114.113C124.128 114.113 125.342 112.973 125.342 111.566C125.342 110.159 124.128 109.019 122.629 109.019C121.131 109.019 119.916 110.159 119.916 111.566C119.916 112.973 121.131 114.113 122.629 114.113Z" fill="black"/>
<g opacity="0.5">
<path opacity="0.5" d="M36.8973 54.2971H0V78.8349H36.8973V54.2971Z" fill="url(#paint10_linear)"/>
</g>
<path d="M35.8121 55.0189H1.08521V78.1133H35.8121V55.0189Z" fill="white"/>
<path d="M19.1631 60.8502C18.8728 60.8508 18.5828 60.8689 18.2949 60.9046L19.1631 67.1332L12.4872 66.7155C12.4782 66.8531 12.4709 66.9923 12.4709 67.1332C12.4709 68.3759 12.8634 69.5907 13.5988 70.6239C14.3341 71.6571 15.3793 72.4624 16.6021 72.938C17.825 73.4135 19.1705 73.538 20.4687 73.2955C21.7668 73.0531 22.9593 72.4547 23.8952 71.576C24.8311 70.6973 25.4684 69.5778 25.7267 68.359C25.9849 67.1402 25.8524 65.8769 25.3458 64.7288C24.8393 63.5808 23.9816 62.5995 22.8811 61.9091C21.7805 61.2187 20.4867 60.8502 19.1631 60.8502Z" fill="#E0E0E0"/>
<path d="M16.848 59.7158C15.3136 59.9046 13.8963 60.5868 12.8374 61.6463C11.7785 62.7058 11.1434 64.0771 11.0403 65.5268L17.7162 65.9445L16.848 59.7158Z" fill="black"/>
<defs>
<linearGradient id="paint0_linear" x1="79.7632" y1="101.547" x2="79.7632" y2="9.33966" gradientUnits="userSpaceOnUse">
<stop stop-color="#808080" stop-opacity="0.25"/>
<stop offset="0.54" stop-color="#808080" stop-opacity="0.12"/>
<stop offset="1" stop-color="#808080" stop-opacity="0.1"/>
</linearGradient>
<linearGradient id="paint1_linear" x1="15234.9" y1="718.777" x2="15234.9" y2="359.144" gradientUnits="userSpaceOnUse">
<stop stop-color="#808080" stop-opacity="0.25"/>
<stop offset="0.54" stop-color="#808080" stop-opacity="0.12"/>
<stop offset="1" stop-color="#808080" stop-opacity="0.1"/>
</linearGradient>
<linearGradient id="paint2_linear" x1="5885.06" y1="987.422" x2="5885.06" y2="484.981" gradientUnits="userSpaceOnUse">
<stop stop-color="#808080" stop-opacity="0.25"/>
<stop offset="0.54" stop-color="#808080" stop-opacity="0.12"/>
<stop offset="1" stop-color="#808080" stop-opacity="0.1"/>
</linearGradient>
<linearGradient id="paint3_linear" x1="4623.83" y1="3185.49" x2="4623.83" y2="2043.68" gradientUnits="userSpaceOnUse">
<stop stop-color="#808080" stop-opacity="0.25"/>
<stop offset="0.54" stop-color="#808080" stop-opacity="0.12"/>
<stop offset="1" stop-color="#808080" stop-opacity="0.1"/>
</linearGradient>
<linearGradient id="paint4_linear" x1="4628.03" y1="5475.82" x2="4628.03" y2="4334.01" gradientUnits="userSpaceOnUse">
<stop stop-color="#808080" stop-opacity="0.25"/>
<stop offset="0.54" stop-color="#808080" stop-opacity="0.12"/>
<stop offset="1" stop-color="#808080" stop-opacity="0.1"/>
</linearGradient>
<linearGradient id="paint5_linear" x1="4632.24" y1="7737.96" x2="4632.24" y2="6596.15" gradientUnits="userSpaceOnUse">
<stop stop-color="#808080" stop-opacity="0.25"/>
<stop offset="0.54" stop-color="#808080" stop-opacity="0.12"/>
<stop offset="1" stop-color="#808080" stop-opacity="0.1"/>
</linearGradient>
<linearGradient id="paint6_linear" x1="2618.35" y1="1433.55" x2="2618.35" y2="1158.37" gradientUnits="userSpaceOnUse">
<stop stop-color="#808080" stop-opacity="0.25"/>
<stop offset="0.54" stop-color="#808080" stop-opacity="0.12"/>
<stop offset="1" stop-color="#808080" stop-opacity="0.1"/>
</linearGradient>
<linearGradient id="paint7_linear" x1="22333" y1="4955.94" x2="22333" y2="1084.08" gradientUnits="userSpaceOnUse">
<stop stop-color="#808080" stop-opacity="0.25"/>
<stop offset="0.54" stop-color="#808080" stop-opacity="0.12"/>
<stop offset="1" stop-color="#808080" stop-opacity="0.1"/>
</linearGradient>
<linearGradient id="paint8_linear" x1="12957.6" y1="3209.6" x2="12957.6" y2="1265.43" gradientUnits="userSpaceOnUse">
<stop stop-color="#808080" stop-opacity="0.25"/>
<stop offset="0.54" stop-color="#808080" stop-opacity="0.12"/>
<stop offset="1" stop-color="#808080" stop-opacity="0.1"/>
</linearGradient>
<linearGradient id="paint9_linear" x1="19856.1" y1="23730.3" x2="19856.1" y2="18529.8" gradientUnits="userSpaceOnUse">
<stop stop-color="#808080" stop-opacity="0.25"/>
<stop offset="0.54" stop-color="#808080" stop-opacity="0.12"/>
<stop offset="1" stop-color="#808080" stop-opacity="0.1"/>
</linearGradient>
<linearGradient id="paint10_linear" x1="3763.52" y1="11445.9" x2="3763.52" y2="7900.24" gradientUnits="userSpaceOnUse">
<stop stop-color="#808080" stop-opacity="0.25"/>
<stop offset="0.54" stop-color="#808080" stop-opacity="0.12"/>
<stop offset="1" stop-color="#808080" stop-opacity="0.1"/>
</linearGradient>
</defs>
</svg>
