<svg width="17" height="25" viewBox="0 0 17 25" fill="none" xmlns="http://www.w3.org/2000/svg">
<path fill-rule="evenodd" clip-rule="evenodd" d="M14.7965 9.86239H14.096V5.6066C14.096 2.51496 11.5813 0 8.49033 0C5.39868 0 2.88372 2.51496 2.88372 5.6066V9.86239H2.18314C0.977478 9.86239 0 10.8395 0 12.0455V22.1727C0 23.3784 0.977478 24.3559 2.18314 24.3559H14.7965C16.0022 24.3559 16.98 23.3784 16.98 22.1727V12.0455C16.98 10.8395 16.0022 9.86239 14.7965 9.86239ZM4.84522 5.6065C4.84522 3.59662 6.48045 1.96139 8.49033 1.96139C10.4996 1.96139 12.1345 3.59662 12.1345 5.6065V9.86229H4.84522V5.6065ZM9.60707 19.7243V16.9985C10.1298 16.6409 10.4731 16.0407 10.4731 15.36C10.4731 14.2645 9.58517 13.3763 8.49 13.3763C7.39484 13.3763 6.50693 14.2642 6.50693 15.36C6.50693 16.0407 6.85019 16.6415 7.37326 16.9985V19.7243C7.37326 20.3412 7.87311 20.8411 8.49 20.8411C9.10722 20.8411 9.60707 20.3412 9.60707 19.7243Z" fill="#9B9B9B"/>
</svg>
