<svg width="15" height="22" viewBox="0 0 15 22" fill="none" xmlns="http://www.w3.org/2000/svg">
<path fill-rule="evenodd" clip-rule="evenodd" d="M13.0537 8.70075H12.4356V4.94623C12.4356 2.21874 10.2172 0 7.49029 0C4.7628 0 2.54406 2.21874 2.54406 4.94623V8.70075H1.926C0.862345 8.70075 0 9.5628 0 10.6267V19.5611C0 20.6248 0.862345 21.4871 1.926 21.4871H13.0537C14.1174 21.4871 14.98 20.6248 14.98 19.5611V10.6267C14.98 9.5628 14.1174 8.70075 13.0537 8.70075ZM4.27453 4.94597C4.27453 3.17283 5.71715 1.7302 7.4903 1.7302C9.26286 1.7302 10.7052 3.17283 10.7052 4.94597V8.70049H4.27453V4.94597ZM8.4755 17.4014V14.9967C8.93666 14.6811 9.23949 14.1516 9.23949 13.5511C9.23949 12.5847 8.45617 11.8011 7.49 11.8011C6.52383 11.8011 5.74051 12.5844 5.74051 13.5511C5.74051 14.1516 6.04334 14.6817 6.50479 14.9967V17.4014C6.50479 17.9456 6.94577 18.3866 7.49 18.3866C8.03452 18.3866 8.4755 17.9456 8.4755 17.4014Z" fill="#607D8B"/>
</svg>
