<svg width="180" height="34" viewBox="0 0 180 34" fill="none" xmlns="http://www.w3.org/2000/svg">
<path d="M61.4568 18.533V27.3719H57.8V18.533L50.0415 5.1167H54.2067L59.643 14.9724L65.0484 5.1167H69.2136L61.4568 18.533Z" fill="white"/>
<path d="M84.2186 11.4752V27.3718H80.7851V25.0822C79.5759 26.7672 77.7002 27.784 75.2217 27.784C70.8984 27.784 67.3052 24.1272 67.3052 19.4227C67.3052 14.6855 70.8984 11.0613 75.2217 11.0613C77.7019 11.0613 79.5776 12.0781 80.7851 13.7322V11.4752H84.2186ZM80.7851 19.4227C80.7851 16.4666 78.6226 14.3351 75.761 14.3351C72.8995 14.3351 70.737 16.4649 70.737 19.4227C70.737 22.3804 72.8995 24.5102 75.761 24.5102C78.6226 24.5102 80.7851 22.3804 80.7851 19.4227Z" fill="white"/>
<path d="M96.5529 11.1887V14.9091C94.2959 14.7493 91.6576 15.7988 91.6576 19.3594V27.3704H88.2241V11.4738H91.6576V14.1447C92.6092 11.984 94.5501 11.1887 96.5529 11.1887Z" fill="white"/>
<path d="M114.387 5.1167V27.3719H110.953V25.0823C109.744 26.7673 107.868 27.7841 105.39 27.7841C101.066 27.7841 97.4731 24.1273 97.4731 19.4228C97.4731 14.6856 101.066 11.0614 105.39 11.0614C107.87 11.0614 109.746 12.0782 110.953 13.7323V5.1167H114.387ZM110.953 19.4228C110.953 16.4667 108.791 14.3352 105.929 14.3352C103.067 14.3352 100.905 16.465 100.905 19.4228C100.905 22.3805 103.067 24.5104 105.929 24.5104C108.791 24.5104 110.953 22.3805 110.953 19.4228Z" fill="white"/>
<path d="M135.304 19.4227C135.304 24.1599 131.711 27.784 127.388 27.784C124.907 27.784 123.032 26.7672 121.824 25.1131V33.7287H118.391V11.4752H121.824V13.7648C123.032 12.0798 124.907 11.063 127.388 11.063C131.712 11.0613 135.304 14.7181 135.304 19.4227ZM131.871 19.4227C131.871 16.4666 129.708 14.3351 126.846 14.3351C123.985 14.3351 121.824 16.4649 121.824 19.4227C121.824 22.3804 123.985 24.5102 126.846 24.5102C129.71 24.5102 131.871 22.3804 131.871 19.4227Z" fill="white"/>
<path d="M137.529 19.4227C137.529 14.6855 141.28 11.0613 145.923 11.0613C150.596 11.0613 154.317 14.6855 154.317 19.4227C154.317 24.1289 150.596 27.784 145.923 27.784C141.28 27.7857 137.529 24.1289 137.529 19.4227ZM150.882 19.4227C150.882 16.5302 148.719 14.3986 145.921 14.3986C143.123 14.3986 140.961 16.5285 140.961 19.4227C140.961 22.3168 143.123 24.4467 145.921 24.4467C148.719 24.4467 150.882 22.3168 150.882 19.4227Z" fill="white"/>
<path d="M168.746 22.8888C168.746 26.0681 165.981 27.7857 162.547 27.7857C159.368 27.7857 157.078 26.355 156.062 24.0654L159.018 22.3478C159.526 23.7785 160.797 24.6373 162.547 24.6373C164.073 24.6373 165.249 24.1289 165.249 22.8562C165.249 20.0273 156.697 21.6161 156.697 15.9256C156.697 12.9369 159.272 11.0613 162.515 11.0613C165.122 11.0613 167.283 12.2688 168.396 14.3677L165.503 15.9891C164.931 14.749 163.818 14.177 162.515 14.177C161.275 14.177 160.194 14.7181 160.194 15.862C160.194 18.7562 168.746 17.0077 168.746 22.8888Z" fill="white"/>
<path d="M176.058 14.7819V22.4116C176.058 24.447 177.393 24.4143 180 24.2872V27.3704C174.722 28.0059 172.625 26.5442 172.625 22.4099V14.7802H169.7V11.4738H172.625V8.04027L176.058 7.02344V11.4738H180V14.7802H176.058V14.7819Z" fill="white"/>
<path d="M44.6272 0L25.8708 32.4888H0L9.70112 15.6836L16.168 26.8859L31.6901 0H44.6272Z" fill="#00E1E1"/>
<path d="M31.6897 0L16.1675 26.8859L9.70068 15.6836L18.7508 0H31.6897Z" fill="#C800FF"/>
<path d="M18.7509 0L9.7008 15.6836L0.645508 0H18.7509Z" fill="#FF64FF"/>
</svg>
