<svg width="27" height="24" viewBox="0 0 27 24" fill="none" xmlns="http://www.w3.org/2000/svg">
<path d="M13.3039 14.1117L3.50146 22.8623C2.76133 23.523 1.55048 23.5133 0.796947 22.8406C0.0434126 22.1679 0.0325454 21.087 0.772674 20.4263L10.5751 11.6758L0.772674 2.92522C0.0325454 2.26451 0.0434126 1.18359 0.796947 0.510921C1.55048 -0.161753 2.76133 -0.171454 3.50146 0.489253L13.3039 9.2398L23.1063 0.489253C23.8465 -0.171454 25.0573 -0.161753 25.8108 0.510921C26.5644 1.18359 26.5752 2.26451 25.8351 2.92522L16.0327 11.6758L25.8351 20.4263C26.5752 21.087 26.5644 22.1679 25.8108 22.8406C25.0573 23.5133 23.8465 23.523 23.1063 22.8623L13.3039 14.1117Z" fill="black"/>
</svg>
