<svg width="166" height="113" viewBox="0 0 166 113" fill="none" xmlns="http://www.w3.org/2000/svg">
<path d="M165.999 0.0999146H0.0703125V113H165.999V0.0999146Z" fill="#E2E2E2"/>
<path d="M161.255 12.3957H4.81543V108.154H161.255V12.3957Z" fill="white"/>
<path d="M165.929 0H0V7.48919H165.929V0Z" fill="black"/>
<path d="M5.23851 5.33215C6.02 5.33215 6.65353 4.65909 6.65353 3.82883C6.65353 2.99856 6.02 2.3255 5.23851 2.3255C4.45701 2.3255 3.82349 2.99856 3.82349 3.82883C3.82349 4.65909 4.45701 5.33215 5.23851 5.33215Z" fill="white"/>
<path d="M10.1977 5.33215C10.9792 5.33215 11.6128 4.65909 11.6128 3.82883C11.6128 2.99856 10.9792 2.3255 10.1977 2.3255C9.41624 2.3255 8.78271 2.99856 8.78271 3.82883C8.78271 4.65909 9.41624 5.33215 10.1977 5.33215Z" fill="white"/>
<path d="M15.157 5.33215C15.9385 5.33215 16.572 4.65909 16.572 3.82883C16.572 2.99856 15.9385 2.3255 15.157 2.3255C14.3755 2.3255 13.7419 2.99856 13.7419 3.82883C13.7419 4.65909 14.3755 5.33215 15.157 5.33215Z" fill="white"/>
<path d="M99.989 34.1829H66.2903V65.4521H99.989V34.1829Z" fill="#E2E2E2"/>
<path d="M77.9292 36.4808L78.9637 40.8768L78.5203 47.3138L82.5103 50.6107L83.8402 39.6208L83.1014 36.9519L77.9292 36.4808Z" fill="#FFB8B8"/>
<path d="M81.6236 46.3717L82.3624 42.1327L83.8403 39.1497L87.5346 55.0066L79.1115 56.2626L76.8948 43.5458L78.785 40.1174L80.1459 42.7607L81.6236 46.3717Z" fill="white"/>
<path d="M91.1285 65.452H77.115L77.1905 64.2696L80.4404 62.0721H84.8741L91.0814 64.8983L91.1285 65.452Z" fill="#2F2E41"/>
<path d="M80.7371 38.8358C82.6958 38.8358 84.2837 37.1488 84.2837 35.0678C84.2837 32.9868 82.6958 31.2999 80.7371 31.2999C78.7783 31.2999 77.1904 32.9868 77.1904 35.0678C77.1904 37.1488 78.7783 38.8358 80.7371 38.8358Z" fill="#FFB8B8"/>
<path d="M94.1851 53.2802L90.7867 50.2961L91.1263 58.1008L91.1593 58.85L91.2018 59.8397L91.2961 61.9995L91.4471 65.4521H84.0489L83.5442 63.7985L83.3437 65.4521H76.5775C76.5304 64.5852 76.5044 63.5404 76.5469 62.4855C76.573 61.5178 76.6891 60.5552 76.8936 59.6117C77.0206 58.9702 77.2728 58.3642 77.6341 57.8328L76.304 52.8091L75.712 55.9486L71.5754 56.2618C71.5754 56.2618 71.5778 56.1816 71.5849 56.0313V56.0288C71.6438 54.4828 72.0801 45.7335 74.2357 44.0172L78.6246 39.4345C78.6246 39.4345 78.627 39.7678 78.6694 40.329V40.3315C78.7024 40.8076 78.7637 41.4465 78.8746 42.1856V42.1931C79.1222 43.8593 79.6128 46.0266 80.5891 47.9408C80.95 48.6474 81.2424 49.2487 81.4806 49.7599C82.5112 51.9773 82.5112 52.4959 82.5112 52.4959L82.9381 47.0915L82.9404 47.0714L82.9428 47.0514L83.5111 39.8154L83.596 38.7355V38.733C83.596 38.733 90.3433 39.9356 92.4116 43.2329C94.0743 45.8788 97.1661 50.1507 98.317 51.7267C98.3311 51.7443 98.3429 51.7618 98.3571 51.7794L98.5292 52.0174C98.5623 52.0625 98.5929 52.1026 98.6189 52.1402C98.6472 52.1777 98.6708 52.2078 98.6896 52.2354L98.7651 52.3381L94.1851 53.2802Z" fill="black"/>
<path d="M82.8059 55.3207C83.0507 55.3207 83.2492 55.1098 83.2492 54.8497C83.2492 54.5895 83.0507 54.3787 82.8059 54.3787C82.561 54.3787 82.3625 54.5895 82.3625 54.8497C82.3625 55.1098 82.561 55.3207 82.8059 55.3207Z" fill="#2F2E41"/>
<path d="M83.3972 59.5596C83.642 59.5596 83.8405 59.3487 83.8405 59.0886C83.8405 58.8285 83.642 58.6176 83.3972 58.6176C83.1523 58.6176 82.9539 58.8285 82.9539 59.0886C82.9539 59.3487 83.1523 59.5596 83.3972 59.5596Z" fill="#2F2E41"/>
<path d="M92.4115 60.8157L91.0816 62.2286L90.1948 59.7167L91.1586 58.8511L92.4115 60.8157Z" fill="#FFB8B8"/>
<path d="M75.5649 61.4437L76.8949 62.8566L77.1905 59.7167L76.3038 59.4026L75.5649 61.4437Z" fill="#FFB8B8"/>
<path d="M76.5994 32.1681C76.5994 32.1681 75.565 30.7739 76.5994 30.0769V30.4254C76.5994 30.4254 78.8161 27.8114 80.1461 28.5084L81.3283 28.1599V28.5084L82.0671 28.1599L81.9194 28.6827H82.9538L82.5105 29.0313C82.5105 29.0313 85.9093 28.857 83.8405 31.471C83.8405 31.471 84.8239 33.0383 83.8888 33.9102C83.8888 33.9102 83.1016 31.9938 82.0671 32.5166C81.7869 32.6712 81.4708 32.7369 81.1564 32.706C80.842 32.6751 80.5426 32.5489 80.2938 32.3424C80.2938 32.3424 78.225 32.1681 78.5205 33.2137C78.8161 34.2593 78.6683 34.6078 78.6683 34.6078C78.6683 34.6078 77.9294 35.1307 78.0772 35.4792C78.225 35.8277 78.225 36.8733 78.225 36.8733C78.225 36.8733 77.4861 35.6535 77.1905 35.8277C76.895 36.002 75.2694 34.2593 76.5994 32.1681Z" fill="#2F2E41"/>
<path d="M72.1661 55.6346L71.575 56.037V56.4196C71.6086 57.0927 71.8128 57.7437 72.1661 58.3036C72.7572 59.2456 76.0082 62.3856 76.0082 62.3856L76.8949 59.0886L75.7127 55.9486L74.9738 55.0067L72.1661 55.6346Z" fill="black"/>
<path d="M96.6968 51.5527L98.3183 51.7275L98.7657 52.3377C98.7657 52.3377 99.0613 53.7507 98.4702 54.5357C97.8791 55.3207 92.7069 61.7576 92.7069 61.7576L90.4902 58.9317L94.3324 53.9077L94.1846 53.2797L96.6968 51.5527Z" fill="black"/>
<path d="M151.023 33.8758H116.994V65.4517H151.023V33.8758Z" fill="#E2E2E2"/>
<path d="M138.019 40.7396L130.334 40.8966L129.3 33.3607H138.019V40.7396Z" fill="#2F2E41"/>
<path d="M141.787 41.9171C141.787 41.9171 144.447 41.9171 144.743 44.9001C145.038 47.8831 144.004 55.576 144.004 55.576L143.117 65.4669H141.034L141.196 57.931L141.787 47.0981L140.014 45.0571L141.787 41.9171Z" fill="#A0616A"/>
<path d="M130.851 41.9171C130.851 41.9171 128.339 41.2891 125.975 44.9001C125.975 44.9001 119.916 49.6101 121.837 51.337C123.758 53.064 128.93 54.163 128.93 54.163C128.93 54.163 127.009 58.402 128.191 58.559C129.374 58.716 131.147 54.006 130.704 53.221C130.26 52.436 128.635 51.965 128.635 51.965L124.793 49.9241C124.793 49.9241 129.722 45.4248 129.991 47.3604L131.443 46.6271L130.851 41.9171Z" fill="#A0616A"/>
<path d="M136.319 36.5792C136.631 37.7054 137.179 38.7422 137.921 39.6121C138.663 40.482 139.58 41.1626 140.605 41.6032L136.762 45.0571L132.181 41.9172C132.181 41.9172 133.807 40.8182 133.364 38.4632L136.319 36.5792Z" fill="#A0616A"/>
<path d="M133.364 39.0912C135.323 39.0912 136.91 37.4042 136.91 35.3232C136.91 33.2422 135.323 31.5552 133.364 31.5552C131.405 31.5552 129.817 33.2422 129.817 35.3232C129.817 37.4042 131.405 39.0912 133.364 39.0912Z" fill="#A0616A"/>
<path d="M130.26 41.6032L132.958 41.0414C132.958 41.0414 133.807 43.1732 136.615 42.8592C139.422 42.5451 139.917 41.2567 139.917 41.2567L142.526 41.9172C142.526 41.9172 141.048 43.6441 141.787 47.0981C141.787 47.0981 142.082 52.75 140.457 54.791L140.309 57.931C140.309 57.931 142.23 63.2689 141.196 65.4669H126.714C126.714 65.4669 127.305 57.617 129.965 55.576L130.556 54.163C130.556 54.163 129.374 48.6681 129.965 47.7261C129.965 47.7261 130.408 41.7602 130.26 41.6032Z" fill="black"/>
<path d="M140.106 38.8637C139.301 38.394 138.926 37.3398 138.9 36.3644C138.873 35.389 139.096 34.4237 139.113 33.448C139.122 33.2484 139.106 33.0484 139.066 32.8533C138.999 32.6111 138.895 32.3823 138.758 32.1762C137.711 30.4719 135.891 29.273 133.974 29.2542C133.697 29.2503 133.422 29.304 133.164 29.4123C132.966 29.4966 132.901 29.4863 132.863 29.7448C132.409 29.5856 131.917 29.6023 131.473 29.7918C131.034 29.9816 130.624 30.2409 130.258 30.561C130.04 30.733 129.834 30.922 129.643 31.1264C128.63 32.2413 128.397 33.9597 128.69 35.4777C128.785 35.9712 128.328 36.4476 127.949 36.7508C127.57 37.0539 127.133 37.3322 126.947 37.7957C126.768 38.2415 126.866 38.7513 126.83 39.2345C126.79 39.6912 126.63 40.1268 126.369 40.4921C126.108 40.8574 125.756 41.138 125.352 41.302C125.435 41.4066 125.542 41.4858 125.663 41.531C125.784 41.5762 125.914 41.5859 126.04 41.559C126.303 41.5002 126.548 41.376 126.757 41.1965C127.541 40.5793 128.102 39.695 128.346 38.6912C128.457 39.2288 128.414 39.7833 128.41 40.3338C128.42 40.9481 128.313 41.5581 128.097 42.1279C127.877 42.7003 127.474 43.1719 126.958 43.4597C127.455 43.7182 128.003 43.5308 128.424 43.1495C128.828 42.7425 129.119 42.2264 129.267 41.6566C129.55 40.7471 129.664 39.7883 129.605 38.8327C130.067 39.6593 130.236 40.6343 130.081 41.5816C129.919 42.5475 129.445 43.4229 128.739 44.056C129.969 44.0449 131.179 43.7213 132.267 43.1122C132.548 42.9769 132.795 42.7743 132.99 42.5202C133.34 42.0041 133.258 41.3003 133.159 40.6728C133.082 40.1766 133.665 39.4593 133.331 39.103C133.245 39.0103 133.131 38.9525 133.008 38.9395C131.799 38.756 130.71 38.0178 130.186 36.8449C129.96 36.3627 129.836 35.8335 129.823 35.2947C129.823 34.7286 129.943 34.1698 130.174 33.6598C130.406 33.1499 130.742 32.7018 131.159 32.349C131.576 31.9962 132.062 31.7477 132.581 31.6219C133.101 31.4961 133.64 31.4963 134.16 31.6224C134.679 31.7486 135.165 31.9974 135.582 32.3505C135.998 32.7036 136.334 33.1519 136.566 33.662C136.797 34.1721 136.916 34.731 136.916 35.2971C136.916 35.8632 136.796 36.4219 136.564 36.9319C136.526 37.6914 136.407 38.4439 136.211 39.1754C135.958 40.1109 135.53 41.0654 134.737 41.5533C135.014 41.6794 135.312 41.7464 135.614 41.7505C136.608 41.8669 137.654 41.8412 138.555 41.3771C139.455 40.913 140.17 39.9246 140.106 38.8637Z" fill="#2F2E41"/>
<path d="M137.575 34.4597C134.917 33.3276 132.296 33.0861 129.743 34.4597V32.1779C129.743 31.9827 129.779 31.7894 129.85 31.6091C129.92 31.4288 130.023 31.265 130.153 31.127C130.283 30.989 130.437 30.8795 130.607 30.8048C130.776 30.7302 130.958 30.6917 131.142 30.6917H136.47C136.763 30.6917 137.044 30.8154 137.252 31.0356C137.459 31.2558 137.575 31.5544 137.575 31.8658V34.4597Z" fill="#2F2E41"/>
<path d="M136.91 35.8727C137.216 35.8727 137.465 35.4509 137.465 34.9307C137.465 34.4105 137.216 33.9887 136.91 33.9887C136.604 33.9887 136.356 34.4105 136.356 34.9307C136.356 35.4509 136.604 35.8727 136.91 35.8727Z" fill="#A0616A"/>
<path d="M51.2735 34.0876H17.4709V65.4521H51.2735V34.0876Z" fill="#E2E2E2"/>
<path d="M36.7959 41.6446L29.5549 41.4877V30.8118L36.7959 31.5968V41.6446Z" fill="#2F2E41"/>
<path d="M43.4273 65.4521H27.7795C27.8811 64.8479 28.0555 64.2601 28.2984 63.7032C28.7418 62.8388 29.296 60.9546 29.7393 59.286C29.9964 58.3188 30.2157 57.4243 30.3549 56.8456C30.4563 56.4221 30.5153 56.1666 30.5153 56.1666L38.1988 52.8693C38.1988 52.8693 38.4158 53.2877 38.7648 53.9917C38.7695 54.0023 38.775 54.0123 38.7814 54.0218C39.029 54.5204 39.3403 55.1618 39.6846 55.8959H39.687C40.9463 58.5619 42.6656 62.4755 43.4273 65.4521Z" fill="#2F2E41"/>
<path d="M31.0327 37.0917L29.9983 42.5867L33.5449 42.9007C33.5449 42.9007 34.136 38.0337 34.2838 37.8767C34.4316 37.7197 31.0327 37.0917 31.0327 37.0917Z" fill="#FFB8B8"/>
<path d="M33.3232 38.8973C35.282 38.8973 36.8699 37.2103 36.8699 35.1293C36.8699 33.0483 35.282 31.3613 33.3232 31.3613C31.3645 31.3613 29.7766 33.0483 29.7766 35.1293C29.7766 37.2103 31.3645 38.8973 33.3232 38.8973Z" fill="#FFB8B8"/>
<path d="M29.9983 41.0167C29.9983 41.0167 33.3972 41.8017 33.545 41.6446C33.6927 41.4876 37.6827 42.2726 37.9782 43.6856C38.2738 45.0986 37.5349 50.5936 37.5349 50.5936C37.5349 50.5936 39.1605 51.3786 39.0127 51.6926C38.8649 52.0066 39.8993 52.3205 39.6038 52.7915C39.3082 53.2625 33.9883 61.4265 31.4761 61.2695C28.9639 61.1125 24.3828 43.3716 24.3828 43.3716C24.3828 43.3716 24.5306 41.1736 26.4517 41.1736C28.3728 41.1736 29.9983 41.0167 29.9983 41.0167Z" fill="black"/>
<path d="M39.6778 53.6551C39.6778 53.6551 37.6063 54.1532 37.977 55.1601C38.3478 56.1671 40.5644 55.8531 40.5644 55.8531L39.6778 53.6551Z" fill="#FFB8B8"/>
<path d="M33.2132 65.4521H27.7795C27.763 65.5423 27.7441 65.635 27.7252 65.7277C27.4638 65.613 27.1941 65.5208 26.9187 65.4521C26.8574 65.4371 26.822 65.4295 26.822 65.4295C26.822 65.4295 25.6381 60.7191 24.0132 54.9113C22.5722 49.7574 24.0367 44.4782 24.3858 43.3532V43.3507C24.4306 43.2104 24.4565 43.1352 24.4565 43.1352L25.7867 42.0378L30.3548 56.8456L31.5505 60.7191C31.5505 60.7191 31.5882 60.9346 31.6519 61.2678C31.8453 62.26 32.2887 64.292 32.732 64.6453C32.953 64.8676 33.1184 65.1449 33.2132 65.4521Z" fill="black"/>
<path d="M35.9829 43.1362L37.8271 43.3397L42.0418 48.9452C42.0418 48.9452 43.6673 50.5151 42.6329 51.1431C41.5984 51.7711 41.1551 53.0271 41.1551 53.0271C41.1551 53.0271 42.4851 56.1671 40.564 56.6381C40.564 56.6381 39.234 53.4981 38.7907 53.1841C38.3473 52.8701 39.3818 51.6141 39.3818 51.6141L35.9829 49.2592L35.9829 43.1362Z" fill="black"/>
<path d="M33.3232 29.0063C33.3232 29.0063 29.1854 28.2214 28.4466 32.1463C28.2694 33.0576 28.1524 33.9809 28.0964 34.9096C27.9801 37.184 27.3933 39.4032 26.3777 41.4092L33.0276 43.4502C33.0276 43.4502 31.2543 40.4672 31.5499 39.2112C31.6046 38.8962 31.6005 38.5728 31.5377 38.2594C30.8483 37.8081 30.3251 37.1196 30.0551 36.3084C29.7851 35.4973 29.7846 34.6124 30.0537 33.8009C30.3227 32.9895 30.8451 32.3003 31.534 31.848C32.2229 31.3957 33.0368 31.2076 33.8403 31.3149C34.6438 31.4223 35.3885 31.8186 35.9506 32.4379C36.5126 33.0573 36.8582 33.8624 36.9298 34.7194C37.0014 35.5764 36.7947 36.4336 36.3441 37.1485C35.8936 37.8634 35.2262 38.3929 34.4531 38.6489C33.9586 39.792 33.6895 41.0285 34.3576 41.8802C35.2019 42.9763 36.1985 43.9293 37.3131 44.7062C37.3131 44.7062 36.5743 40.9382 37.7565 38.7402C38.9387 36.5423 37.7565 29.3203 33.3232 29.0063Z" fill="#2F2E41"/>
<path d="M36.9983 34.0414L30.0648 34.4735L29.874 31.0222L35.9085 30.7917L36.9983 34.0414Z" fill="#2F2E41"/>
<path d="M18.8598 78.3907C19.5111 78.3907 20.039 77.8298 20.039 77.1379C20.039 76.446 19.5111 75.8851 18.8598 75.8851C18.2086 75.8851 17.6807 76.446 17.6807 77.1379C17.6807 77.8298 18.2086 78.3907 18.8598 78.3907Z" fill="#E2E2E2"/>
<path d="M18.8598 85.4062C19.5111 85.4062 20.039 84.8454 20.039 84.1535C20.039 83.4616 19.5111 82.9007 18.8598 82.9007C18.2086 82.9007 17.6807 83.4616 17.6807 84.1535C17.6807 84.8454 18.2086 85.4062 18.8598 85.4062Z" fill="#E2E2E2"/>
<path d="M18.8598 92.4217C19.5111 92.4217 20.039 91.8608 20.039 91.169C20.039 90.4771 19.5111 89.9162 18.8598 89.9162C18.2086 89.9162 17.6807 90.4771 17.6807 91.169C17.6807 91.8608 18.2086 92.4217 18.8598 92.4217Z" fill="#E2E2E2"/>
<path d="M46.2168 76.1357H23.8123V78.1402H46.2168V76.1357Z" fill="#E2E2E2"/>
<path d="M46.2168 83.1512H23.8123V85.1557H46.2168V83.1512Z" fill="#E2E2E2"/>
<path d="M46.2168 90.1667H23.8123V92.1712H46.2168V90.1667Z" fill="#E2E2E2"/>
<path d="M70.0505 78.3907C70.7018 78.3907 71.2297 77.8298 71.2297 77.1379C71.2297 76.446 70.7018 75.8851 70.0505 75.8851C69.3993 75.8851 68.8713 76.446 68.8713 77.1379C68.8713 77.8298 69.3993 78.3907 70.0505 78.3907Z" fill="#E2E2E2"/>
<path d="M70.0505 85.4062C70.7018 85.4062 71.2297 84.8454 71.2297 84.1535C71.2297 83.4616 70.7018 82.9007 70.0505 82.9007C69.3993 82.9007 68.8713 83.4616 68.8713 84.1535C68.8713 84.8454 69.3993 85.4062 70.0505 85.4062Z" fill="#E2E2E2"/>
<path d="M70.0505 92.4217C70.7018 92.4217 71.2297 91.8608 71.2297 91.169C71.2297 90.4771 70.7018 89.9162 70.0505 89.9162C69.3993 89.9162 68.8713 90.4771 68.8713 91.169C68.8713 91.8608 69.3993 92.4217 70.0505 92.4217Z" fill="#E2E2E2"/>
<path d="M97.4077 76.1357H75.0032V78.1402H97.4077V76.1357Z" fill="#E2E2E2"/>
<path d="M97.4077 83.1512H75.0032V85.1557H97.4077V83.1512Z" fill="#E2E2E2"/>
<path d="M97.4077 90.1667H75.0032V92.1712H97.4077V90.1667Z" fill="#E2E2E2"/>
<path d="M120.92 78.3907C121.571 78.3907 122.099 77.8298 122.099 77.1379C122.099 76.446 121.571 75.8851 120.92 75.8851C120.268 75.8851 119.74 76.446 119.74 77.1379C119.74 77.8298 120.268 78.3907 120.92 78.3907Z" fill="#E2E2E2"/>
<path d="M120.92 85.4062C121.571 85.4062 122.099 84.8454 122.099 84.1535C122.099 83.4616 121.571 82.9007 120.92 82.9007C120.268 82.9007 119.74 83.4616 119.74 84.1535C119.74 84.8454 120.268 85.4062 120.92 85.4062Z" fill="#E2E2E2"/>
<path d="M120.92 92.4217C121.571 92.4217 122.099 91.8608 122.099 91.169C122.099 90.4771 121.571 89.9162 120.92 89.9162C120.268 89.9162 119.74 90.4771 119.74 91.169C119.74 91.8608 120.268 92.4217 120.92 92.4217Z" fill="#E2E2E2"/>
<path d="M148.277 76.1357H125.872V78.1402H148.277V76.1357Z" fill="#E2E2E2"/>
<path d="M148.277 83.1512H125.872V85.1557H148.277V83.1512Z" fill="#E2E2E2"/>
<path d="M148.277 90.1667H125.872V92.1712H148.277V90.1667Z" fill="#E2E2E2"/>
</svg>
