<svg width="30" height="30" viewBox="0 0 30 30" fill="none" xmlns="http://www.w3.org/2000/svg">
<circle cx="15" cy="15" r="15" fill="#444444"/>
<path fill-rule="evenodd" clip-rule="evenodd" d="M10.994 10.39L8.78404 15.0556C8.45753 15.7449 7.76307 16.1843 7.00034 16.1843H3.15784C2.50382 16.1843 1.97363 15.6541 1.97363 15.0001C1.97363 14.3461 2.50382 13.8159 3.15784 13.8159H6.75054L9.22987 8.58179C9.95886 7.04281 12.1639 7.08748 12.83 8.65471L17.9591 20.7232L21.6563 14.7507C22.0161 14.1696 22.6509 13.8159 23.3345 13.8159H26.8421C27.4961 13.8159 28.0263 14.3461 28.0263 15.0001C28.0263 15.6541 27.4961 16.1843 26.8421 16.1843H23.5544L19.5719 22.6175C18.7296 23.9782 16.7033 23.8234 16.0773 22.3506L10.994 10.39Z" fill="#D8D8D8"/>
</svg>
