<svg width="168" height="133" viewBox="0 0 168 133" fill="none" xmlns="http://www.w3.org/2000/svg">
<path d="M33.1576 1.35419C33.1576 1.35419 32.5738 3.7321 36.6539 10.4536C40.7339 17.1751 40.4506 18.1273 40.2152 20.0493C39.9798 21.9714 39.9938 23.0237 37.6232 25.3839C37.6232 25.3839 30.5206 27.8184 29.5715 29.3363C28.6223 30.8542 31.14 36.373 31.14 36.373C31.14 36.373 33.5586 43.0768 24.8736 45.6486C24.8736 45.6486 18.0776 45.6583 16.1932 47.2215C16.1932 47.2215 16.9225 44.5009 14.6557 40.5C12.3888 36.4991 15.5119 32.5984 15.5119 32.5984C15.5119 32.5984 18.0265 31.1532 19.6229 31.0417C21.2194 30.9302 21.7257 30.1672 20.6991 28.2516C20.6991 28.2516 19.2142 27.4433 17.1579 29.1746C15.1016 30.9059 13.5656 32.1393 11.7741 31.9938C9.98257 31.8484 7.4277 31.0595 5.75078 27.5985C4.07386 24.1375 3.19126 19.2443 1.93551 17.0103C0.67975 14.7762 0 14.2864 0 14.2864C0 14.2864 1.58712 15.5441 7.06693 11.2748C12.5467 7.00557 15.4066 8.83224 15.4066 8.83224C15.4066 8.83224 19.8103 10.0673 20.5164 18.1742C20.5164 18.1742 21.7969 25.8995 24.3998 21.2197C24.3998 21.2197 23.5187 18.5847 21.7582 14.7051C19.9977 10.8254 24.7095 7.17369 28.1593 5.95159C31.6092 4.7295 33.1576 1.35419 33.1576 1.35419Z" fill="black"/>
<path d="M4.79795 15.9981L4.78247 15.9577C5.86636 15.4856 10.8662 18.3129 14.8641 20.7684L14.8425 20.8056C9.20317 17.343 5.63564 15.636 4.79795 15.9981Z" fill="#444053"/>
<path d="M14.7615 20.7527L14.8048 20.7285C17.9976 22.6925 21.8284 25.1852 24.6976 27.2091C24.9701 27.4015 25.2535 27.5922 25.543 27.7717L25.4981 27.8476C25.2086 27.6666 24.9237 27.4758 24.6496 27.2819C21.7835 25.2596 17.9527 22.7152 14.7615 20.7527Z" fill="#444053"/>
<path d="M25.4143 27.7995L25.4855 27.7413C31.241 31.3477 39.3376 30.4894 39.4088 30.4894L38.5154 31.5482C38.4441 31.553 31.21 31.4302 25.4143 27.7995Z" fill="#444053"/>
<path d="M30.9955 6.78723C30.9955 6.78723 29.1111 12.2656 30.5433 16.1259C31.9756 19.9861 28.9949 29.5511 28.9949 29.5511C28.9949 29.5511 28.0055 33.5746 26.4138 34.5801C26.4138 34.5801 24.1051 37.5723 22.7518 37.915C21.3985 38.2577 18.2862 41.2935 18.3683 42.9731" stroke="#444053" stroke-miterlimit="10"/>
<path d="M33.5449 7.17346C33.5449 7.17346 32.2163 9.98622 30.239 9.96197" stroke="#444053" stroke-miterlimit="10"/>
<path d="M36.2083 10.8303C36.2083 10.8303 35.4046 14.6986 30.4265 15.7801" stroke="#444053" stroke-miterlimit="10"/>
<path d="M38.2814 16.5951C38.2814 16.5951 35.9387 20.5136 30.8909 20.0367" stroke="#444053" stroke-miterlimit="10"/>
<path d="M37.8424 23.9354C37.8424 23.9354 33.4341 26.9503 30.1003 25.295" stroke="#444053" stroke-miterlimit="10"/>
<path d="M27.8804 7.17346C27.8804 7.17346 29.0324 9.71784 30.3067 8.95162" stroke="#444053" stroke-miterlimit="10"/>
<path d="M23.6621 11.0392C23.6621 11.0392 25.2105 14.4533 30.0555 13.8536" stroke="#444053" stroke-miterlimit="10"/>
<path d="M23.1946 16.173C23.1946 16.173 27.4558 18.8758 30.9118 18.1435" stroke="#444053" stroke-miterlimit="10"/>
<path d="M25.438 21.6447C25.438 21.6447 28.8104 24.4527 30.3929 23.8077" stroke="#444053" stroke-miterlimit="10"/>
<path d="M24.6497 23.7386C24.6497 23.7386 25.5622 26.6888 24.6651 27.2465" stroke="#444053" stroke-miterlimit="10"/>
<path d="M21.6614 28.1623C21.6614 28.1623 23.4001 26.3599 22.9155 26.0285" stroke="#444053" stroke-miterlimit="10"/>
<path d="M18.4682 13.1904C18.4682 13.1904 19.9902 20.738 18.0129 22.7748" stroke="#444053" stroke-miterlimit="10"/>
<path d="M12.1038 31.1484C12.1038 31.1484 18.9926 26.53 19.5934 23.8013" stroke="#444053" stroke-miterlimit="10"/>
<path d="M8.11401 27.893C8.11401 27.893 14.5941 24.7391 16.3515 21.7178" stroke="#444053" stroke-miterlimit="10"/>
<path d="M12.4648 10.7718C12.4648 10.7718 15.6004 16.2325 13.6417 20.054" stroke="#444053" stroke-width="0.75" stroke-miterlimit="10"/>
<path d="M5.99951 22.9333C5.99951 22.9333 10.7996 20.9046 11.7704 18.9502" stroke="#444053" stroke-width="0.75" stroke-miterlimit="10"/>
<path d="M7.0127 12.4368C7.0127 12.4368 8.61847 15.5276 7.87056 16.871" stroke="#444053" stroke-width="0.75" stroke-miterlimit="10"/>
<path d="M23.6489 30.7231C23.6489 30.7231 27.9845 30.1169 28.449 31.2986" stroke="#444053" stroke-miterlimit="10"/>
<path d="M30.5815 39.9992C30.5815 39.9992 30.3477 35.0493 27.6394 33.1354" stroke="#444053" stroke-miterlimit="10"/>
<path d="M18.6929 32.7147C18.6929 32.7147 23.2436 33.2756 24.8524 36.3745" stroke="#444053" stroke-miterlimit="10"/>
<path d="M26.3245 43.5895C26.3245 43.5895 27.0275 39.9636 23.7031 37.3998" stroke="#444053" stroke-miterlimit="10"/>
<path d="M15.4136 37.095C15.4136 37.095 19.1886 36.8929 21.2108 38.7665" stroke="#444053" stroke-miterlimit="10"/>
<path d="M20.6171 44.263C20.6171 44.263 20.2641 41.3856 19.2793 40.8408" stroke="#444053" stroke-miterlimit="10"/>
<path opacity="0.1" d="M79.1693 31.9066C70.6732 36.3698 61.3811 38.3161 52.3214 39.8163C43.2616 41.3164 34.1167 42.4722 25.1886 45.6083C19.4471 47.6257 13.3788 50.8927 10.5483 55.9686C7.82005 60.8425 8.82806 66.0396 10.2712 70.5691C11.3551 73.9752 12.7486 77.4216 15.7154 79.5037C17.7779 80.9489 20.4551 81.6262 22.7034 82.8564C30.5244 87.1321 31.7925 97.161 30.5321 106.387C29.9406 110.714 28.9249 115.098 28.9388 119.34C28.9528 123.582 30.1249 127.785 33.3487 130.29C36.5446 132.773 41.3432 133.278 46.0457 132.877C55.6009 132.068 65.2088 127.932 74.3599 123.486C94.6224 113.646 114.032 101.915 133.396 90.2132C140.559 85.8825 147.755 81.5308 154.349 76.4016C158.011 73.5533 161.627 70.2814 163.318 66.3662C165.472 61.3969 163.829 55.9832 159.487 53.7475C152.209 49.9972 140.042 54.9421 133.766 50.0441C130.299 47.3477 129.847 42.414 130.412 37.7827C131.623 27.8313 136.628 16.8632 132.808 8.44266C130.185 2.65871 123.282 -0.706902 115.744 0.125611C107.847 0.998537 99.0958 6.41876 96.7422 13.7255C94.3236 21.2504 86.6713 27.9574 79.1693 31.9066Z" fill="black"/>
<path opacity="0.1" d="M99.5372 127.066C108.098 127.066 115.038 125.276 115.038 123.068C115.038 120.86 108.098 119.071 99.5372 119.071C90.9762 119.071 84.0361 120.86 84.0361 123.068C84.0361 125.276 90.9762 127.066 99.5372 127.066Z" fill="black"/>
<path d="M166.066 21.9372H22.7843C21.7162 21.9372 20.8503 22.8411 20.8503 23.9562V106.941C20.8503 108.056 21.7162 108.96 22.7843 108.96H166.066C167.134 108.96 168 108.056 168 106.941V23.9562C168 22.8411 167.134 21.9372 166.066 21.9372Z" fill="url(#paint0_linear)"/>
<path d="M165.85 23.1609H23.0179C21.9499 23.1609 21.084 24.0649 21.084 25.18V106.651C21.084 107.766 21.9499 108.67 23.0179 108.67H165.85C166.918 108.67 167.783 107.766 167.783 106.651V25.18C167.783 24.0649 166.918 23.1609 165.85 23.1609Z" fill="white"/>
<path d="M165.85 23.1609H23.0179C21.9499 23.1609 21.084 24.0649 21.084 25.18V106.651C21.084 107.766 21.9499 108.67 23.0179 108.67H165.85C166.918 108.67 167.783 107.766 167.783 106.651V25.18C167.783 24.0649 166.918 23.1609 165.85 23.1609Z" fill="white"/>
<path opacity="0.04" d="M165.85 23.1609H23.0179C21.9499 23.1609 21.084 24.0649 21.084 25.18V106.651C21.084 107.766 21.9499 108.67 23.0179 108.67H165.85C166.918 108.67 167.783 107.766 167.783 106.651V25.18C167.783 24.0649 166.918 23.1609 165.85 23.1609Z" fill="#5A5773"/>
<path d="M167.041 22.1797H21.8312C21.6337 22.1797 21.4442 22.2617 21.3046 22.4075C21.1649 22.5533 21.0864 22.7511 21.0864 22.9573V26.2485H167.786V22.9573C167.786 22.7511 167.708 22.5533 167.568 22.4075C167.428 22.2617 167.239 22.1797 167.041 22.1797Z" fill="#5A5773"/>
<path d="M24.0143 25.2632C24.5701 25.2632 25.0207 24.7927 25.0207 24.2124C25.0207 23.6321 24.5701 23.1617 24.0143 23.1617C23.4584 23.1617 23.0078 23.6321 23.0078 24.2124C23.0078 24.7927 23.4584 25.2632 24.0143 25.2632Z" fill="white"/>
<path d="M26.7242 25.2624C27.2801 25.2624 27.7307 24.7919 27.7307 24.2116C27.7307 23.6313 27.2801 23.1609 26.7242 23.1609C26.1684 23.1609 25.7178 23.6313 25.7178 24.2116C25.7178 24.7919 26.1684 25.2624 26.7242 25.2624Z" fill="white"/>
<path d="M29.4335 25.2624C29.9893 25.2624 30.4399 24.7919 30.4399 24.2116C30.4399 23.6313 29.9893 23.1609 29.4335 23.1609C28.8776 23.1609 28.427 23.6313 28.427 24.2116C28.427 24.7919 28.8776 25.2624 29.4335 25.2624Z" fill="white"/>
<path opacity="0.1" d="M151.652 45.1769H32.4831C31.6117 45.1769 30.9053 45.9144 30.9053 46.8242V92.6719C30.9053 93.5816 31.6117 94.3191 32.4831 94.3191H151.652C152.523 94.3191 153.229 93.5816 153.229 92.6719V46.8242C153.229 45.9144 152.523 45.1769 151.652 45.1769Z" fill="black"/>
<path d="M154.594 43.5842L35.4645 40.4143C34.5934 40.3912 33.8692 41.1096 33.847 42.0191L32.7281 87.8521C32.7059 88.7615 33.3941 89.5176 34.2652 89.5408L153.395 92.7106C154.266 92.7338 154.99 92.0154 155.012 91.1059L156.131 45.2729C156.154 44.3634 155.465 43.6074 154.594 43.5842Z" fill="white"/>
<path opacity="0.2" d="M52.1841 50.8003L137.396 53.0618" stroke="#5A5773" stroke-miterlimit="10"/>
<path opacity="0.2" d="M52.0164 57.7499L137.228 60.0114" stroke="#5A5773" stroke-miterlimit="10"/>
<path opacity="0.2" d="M51.8472 64.6983L137.059 66.9596" stroke="#5A5773" stroke-miterlimit="10"/>
<path opacity="0.2" d="M51.6768 71.6473L136.89 73.9089" stroke="#5A5773" stroke-miterlimit="10"/>
<path opacity="0.2" d="M59.4215 69.9662L59.2063 78.8008" stroke="#5A5773" stroke-miterlimit="10" stroke-dasharray="12 12"/>
<path opacity="0.2" d="M51.5076 78.5969L136.72 80.8568" stroke="#5A5773" stroke-miterlimit="10"/>
<path opacity="0.2" d="M68.844 79.0563L69.1645 65.8865" stroke="#5A5773" stroke-miterlimit="10" stroke-dasharray="12 12"/>
<path opacity="0.2" d="M125.213 64.8449C123.694 64.9823 122.211 64.0932 121.302 63.1588C120.36 62.1889 119.677 60.9959 119.018 59.8352C118.809 59.4683 118.592 59.09 118.374 58.7247C117.223 56.8204 116.074 55.5401 114.76 54.6946C114.278 54.3849 113.762 54.1384 113.222 53.9607C113.17 54.0891 113.096 54.2064 113.004 54.3067C112.805 54.5228 112.532 54.6478 112.245 54.6542H112.194C111.937 54.647 111.69 54.5443 111.498 54.3645C111.307 54.1846 111.183 53.9395 111.149 53.673C110.661 53.6971 110.18 53.8002 109.723 53.9785C108.371 54.5103 107.344 55.6532 106.411 56.78C105.28 58.1411 104.19 59.5685 103.175 61.025C102.968 61.3192 102.762 61.615 102.555 61.9125C101.453 63.5193 100.313 65.1795 98.8391 66.4776C96.8602 68.2299 94.4803 68.9849 92.4721 68.4983C90.0628 67.9147 88.3394 65.692 87.1084 63.82C86.9536 63.5775 86.7987 63.3351 86.6315 63.0877C85.4826 61.3095 84.295 59.4715 82.5422 58.3997C80.2335 56.9853 77.0453 57.2294 74.955 58.9769C73.9362 59.8288 73.1713 60.9862 72.4296 62.1049C72.1756 62.4896 71.9124 62.8873 71.6414 63.2688C70.2479 65.2232 68.8435 66.2836 67.3291 66.5132C66.7286 66.5827 66.1226 66.5827 65.5221 66.5132C65.1227 66.4841 64.7092 66.4517 64.3051 66.4631C63.2968 66.508 62.3168 66.8244 61.4603 67.3816C60.6037 67.9387 59.8998 68.7177 59.4168 69.6428L59.2031 78.9476L126.142 80.7258L126.517 65.3315C126.402 65.3966 126.275 65.4358 126.145 65.4464C126.015 65.457 125.884 65.4388 125.761 65.3931C125.638 65.3473 125.526 65.275 125.431 65.1808C125.337 65.0866 125.262 64.9727 125.213 64.8465V64.8449Z" fill="black"/>
<path opacity="0.2" d="M79.2701 57.4802L78.739 79.3193" stroke="#5A5773" stroke-miterlimit="10" stroke-dasharray="12 12"/>
<path opacity="0.2" d="M88.6064 65.8356L88.272 79.5713" stroke="#5A5773" stroke-miterlimit="10" stroke-dasharray="12 12"/>
<path opacity="0.2" d="M97.8902 67.4473L97.5898 79.8188" stroke="#5A5773" stroke-miterlimit="10" stroke-dasharray="12 12"/>
<path opacity="0.2" d="M106.9 56.3759L106.324 80.0499" stroke="#5A5773" stroke-miterlimit="10" stroke-dasharray="12 12"/>
<path opacity="0.2" d="M116.07 55.5497L115.468 80.2939" stroke="#5A5773" stroke-miterlimit="10" stroke-dasharray="12 12"/>
<path opacity="0.2" d="M126.226 64.853L125.842 80.5689" stroke="#5A5773" stroke-miterlimit="10" stroke-dasharray="12 12"/>
<path d="M113.129 52.8697C113.026 52.7666 112.905 52.6857 112.772 52.6316C112.639 52.5775 112.498 52.5513 112.355 52.5545C112.1 52.5594 111.854 52.6582 111.662 52.8336C111.47 53.009 111.343 53.2496 111.304 53.513C111.294 53.5772 111.29 53.6421 111.292 53.707C111.292 53.7507 111.292 53.7943 111.301 53.8363C111.334 54.0896 111.448 54.3237 111.624 54.5007C111.817 54.7005 112.075 54.8162 112.346 54.8239H112.397C112.684 54.8184 112.958 54.694 113.157 54.478C113.249 54.3774 113.323 54.2602 113.375 54.1321C113.416 54.0316 113.442 53.9254 113.453 53.8169C113.457 53.768 113.457 53.7188 113.453 53.6698C113.452 53.5208 113.423 53.3734 113.367 53.2361C113.312 53.0988 113.231 52.9743 113.129 52.8697ZM113.075 54.0335C113.04 54.1122 112.993 54.1839 112.934 54.2453C112.835 54.352 112.71 54.4281 112.572 54.4653C112.435 54.5026 112.29 54.4995 112.154 54.4564C112.017 54.4133 111.895 54.3319 111.801 54.2211C111.706 54.1103 111.642 53.9743 111.617 53.8282C111.608 53.7862 111.603 53.7435 111.603 53.7005C111.601 53.6353 111.607 53.5702 111.621 53.5066C111.659 53.3302 111.753 53.1723 111.887 53.058C112.021 52.9437 112.188 52.8797 112.361 52.8762H112.397C112.596 52.8815 112.785 52.9666 112.925 53.1138C113.066 53.261 113.147 53.4589 113.151 53.6666C113.151 53.6828 113.151 53.7005 113.151 53.7167C113.148 53.8268 113.122 53.935 113.075 54.0335Z" fill="black"/>
<path d="M126.235 65.6109C126.749 65.6109 127.165 65.1767 127.165 64.641C127.165 64.1053 126.749 63.6711 126.235 63.6711C125.722 63.6711 125.306 64.1053 125.306 64.641C125.306 65.1767 125.722 65.6109 126.235 65.6109Z" fill="black"/>
<path d="M111.603 53.7008C111.604 53.7438 111.609 53.7865 111.617 53.8285C111.512 53.8285 111.407 53.8285 111.308 53.8366C110.819 53.8609 110.338 53.964 109.88 54.1421C108.528 54.674 107.502 55.8169 106.566 56.9436C105.436 58.3031 104.346 59.7321 103.329 61.1869C103.123 61.4811 102.92 61.7786 102.709 62.076C101.605 63.6828 100.466 65.3414 98.993 66.6411C97.0126 68.3918 94.6312 69.1467 92.6213 68.6601C90.2151 68.0782 88.4917 65.8538 87.253 63.9819C87.0981 63.741 86.934 63.4969 86.7761 63.2496C85.6256 61.4714 84.4364 59.6335 82.6836 58.5617C80.3749 57.1473 77.1836 57.3913 75.0964 59.1388C74.0915 59.9891 73.3173 61.1465 72.5756 62.2652C72.3201 62.6499 72.0568 63.0492 71.7859 63.429C70.3923 65.3834 68.9863 66.4439 67.472 66.6734C66.8715 66.7421 66.2655 66.7421 65.665 66.6734C65.2599 66.6349 64.8531 66.6181 64.4464 66.6233C63.366 66.6702 62.3193 67.0293 61.4228 67.6607C60.5264 68.292 59.8154 69.1708 59.3691 70.199L59.0842 70.0697C59.5552 68.986 60.3049 68.0599 61.2499 67.3944C62.1949 66.7289 63.2982 66.35 64.4371 66.3C64.8547 66.2936 65.2724 66.3109 65.6882 66.3517C66.2661 66.4172 66.8492 66.4172 67.4271 66.3517C68.8563 66.1367 70.2003 65.1167 71.5366 63.2351C71.8044 62.8584 72.0661 62.4624 72.3201 62.0793C73.0741 60.9477 73.8546 59.766 74.9075 58.8834C76.0238 57.9718 77.3746 57.4277 78.7881 57.3204C80.2016 57.213 81.6137 57.5472 82.8446 58.2804C84.6594 59.391 85.8687 61.2597 87.0393 63.0686C87.1941 63.311 87.349 63.5535 87.5147 63.7976C88.7147 65.621 90.387 67.7856 92.6956 68.3433C94.6095 68.8072 96.8903 68.0782 98.7964 66.3921C100.235 65.1199 101.367 63.4824 102.458 61.8853C102.661 61.5878 102.867 61.2904 103.078 60.9946C104.101 59.5397 105.196 58.0978 106.329 56.7286C107.291 55.5711 108.342 54.3959 109.768 53.8382C110.262 53.6477 110.782 53.5386 111.308 53.5149C111.411 53.5149 111.518 53.5052 111.617 53.5149C111.605 53.5761 111.601 53.6385 111.603 53.7008Z" fill="black"/>
<path d="M126.29 64.7933C124.474 65.5013 122.554 64.4441 121.46 63.3223C120.519 62.3524 119.836 61.1578 119.177 59.9972C118.968 59.6318 118.751 59.252 118.531 58.8882C117.38 56.9824 116.232 55.7021 114.915 54.8567C114.433 54.5478 113.917 54.3019 113.378 54.1244C113.279 54.0905 113.178 54.0614 113.068 54.0339C113.115 53.9359 113.141 53.8283 113.144 53.7187C113.246 53.7462 113.347 53.7769 113.454 53.8092C114.023 53.9954 114.567 54.255 115.075 54.5819C116.434 55.4532 117.614 56.7658 118.791 58.7153C119.012 59.0838 119.229 59.4637 119.441 59.8339C120.092 60.9751 120.764 62.1568 121.676 63.0911C122.702 64.1451 124.5 65.1457 126.18 64.491L126.29 64.7933Z" fill="black"/>
<path opacity="0.5" d="M55.2355 49.4313L52.3566 49.3547C52.2797 49.3526 52.2157 49.4161 52.2137 49.4964L52.1853 50.6599C52.1834 50.7403 52.2441 50.8071 52.3211 50.8091L55.2 50.8857C55.2769 50.8878 55.3409 50.8243 55.3428 50.744L55.3712 49.5804C55.3732 49.5001 55.3124 49.4333 55.2355 49.4313Z" fill="black"/>
<path d="M55.0643 56.3789L52.1852 56.3023C52.1083 56.3002 52.0443 56.3637 52.0423 56.444L52.0139 57.6076C52.012 57.6879 52.0728 57.7547 52.1497 57.7567L55.0288 57.8333C55.1058 57.8354 55.1697 57.7719 55.1717 57.6916L55.2001 56.5281C55.202 56.4477 55.1413 56.3809 55.0643 56.3789Z" fill="black"/>
<path opacity="0.5" d="M54.8951 63.3296L52.016 63.253C51.9391 63.2509 51.8751 63.3144 51.8732 63.3947L51.8448 64.558C51.8428 64.6384 51.9036 64.7051 51.9805 64.7072L54.8596 64.7838C54.9366 64.7858 55.0005 64.7224 55.0025 64.642L55.0309 63.4787C55.0329 63.3984 54.9721 63.3316 54.8951 63.3296Z" fill="black"/>
<path opacity="0.5" d="M54.7259 70.2772L51.8468 70.2005C51.7699 70.1985 51.7059 70.262 51.704 70.3423L51.6756 71.5058C51.6736 71.5862 51.7344 71.6529 51.8113 71.655L54.6904 71.7316C54.7674 71.7336 54.8313 71.6702 54.8333 71.5899L54.8617 70.4263C54.8637 70.346 54.8029 70.2792 54.7259 70.2772Z" fill="black"/>
<path opacity="0.5" d="M54.5565 77.2259L51.6774 77.1493C51.6005 77.1472 51.5365 77.2107 51.5345 77.291L51.5061 78.4546C51.5042 78.5349 51.565 78.6017 51.6419 78.6037L54.521 78.6803C54.5979 78.6824 54.6619 78.6189 54.6639 78.5386L54.6923 77.375C54.6942 77.2947 54.6334 77.2279 54.5565 77.2259Z" fill="black"/>
<path opacity="0.5" d="M60.4142 80.2928L57.5348 80.2162C57.4579 80.2142 57.3939 80.2776 57.392 80.358L57.3635 81.5215C57.3616 81.6019 57.4224 81.6686 57.4993 81.6707L60.3787 81.7473C60.4556 81.7493 60.5196 81.6859 60.5215 81.6055L60.55 80.442C60.5519 80.3617 60.4911 80.2949 60.4142 80.2928Z" fill="black"/>
<path opacity="0.5" d="M70.2443 80.5537L67.3651 80.4771C67.2882 80.475 67.2242 80.5385 67.2223 80.6188L67.1939 81.7824C67.1919 81.8627 67.2527 81.9295 67.3296 81.9315L70.2088 82.0082C70.2857 82.0102 70.3497 81.9467 70.3516 81.8664L70.38 80.7029C70.382 80.6225 70.3212 80.5558 70.2443 80.5537Z" fill="black"/>
<path d="M79.7895 81.2657L76.9096 81.1755C76.8327 81.1731 76.7684 81.2363 76.7661 81.3166L76.7326 82.4803C76.7303 82.5607 76.7909 82.6277 76.8678 82.6301L79.7477 82.7203C79.8247 82.7227 79.8889 82.6596 79.8912 82.5792L79.9247 81.4155C79.927 81.3352 79.8665 81.2681 79.7895 81.2657Z" fill="black"/>
<path opacity="0.5" d="M89.6715 81.0699L86.7922 80.9933C86.7152 80.9912 86.6512 81.0547 86.6493 81.135L86.6209 82.2986C86.6189 82.3789 86.6797 82.4457 86.7566 82.4477L89.636 82.5243C89.7129 82.5264 89.7769 82.4629 89.7789 82.3826L89.8073 81.219C89.8092 81.1387 89.7484 81.0719 89.6715 81.0699Z" fill="black"/>
<path opacity="0.5" d="M98.9884 81.3195L96.1091 81.2428C96.0321 81.2408 95.9681 81.3042 95.9662 81.3846L95.9378 82.5481C95.9358 82.6285 95.9966 82.6952 96.0735 82.6973L98.9529 82.7739C99.0298 82.776 99.0938 82.7125 99.0957 82.6322L99.1242 81.4686C99.1261 81.3883 99.0653 81.3215 98.9884 81.3195Z" fill="black"/>
<path d="M107.721 81.5504L104.842 81.4738C104.765 81.4718 104.701 81.5352 104.699 81.6155L104.671 82.7791C104.669 82.8594 104.73 82.9262 104.807 82.9282L107.686 83.0049C107.762 83.0069 107.826 82.9434 107.828 82.8631L107.857 81.6996C107.859 81.6192 107.798 81.5525 107.721 81.5504Z" fill="black"/>
<path d="M116.93 81.7958L114.051 81.7192C113.974 81.7172 113.91 81.7806 113.908 81.8609L113.88 83.0243C113.878 83.1046 113.939 83.1714 114.016 83.1734L116.895 83.25C116.971 83.2521 117.035 83.1886 117.037 83.1083L117.066 81.9449C117.068 81.8646 117.007 81.7979 116.93 81.7958Z" fill="black"/>
<path d="M126.828 82.7395L124.099 82.654C123.98 82.6503 123.881 82.7479 123.878 82.872L123.849 83.8777C123.845 84.0018 123.939 84.1054 124.057 84.1091L126.786 84.1946C126.905 84.1983 127.004 84.1007 127.008 83.9766L127.037 82.971C127.04 82.8468 126.947 82.7432 126.828 82.7395Z" fill="black"/>
<path d="M151.878 97.879C152.233 97.879 152.577 98.0073 152.851 98.2422C153.125 98.477 153.313 98.8039 153.382 99.167C153.451 99.5301 153.398 99.907 153.23 100.234C153.063 100.56 152.793 100.816 152.465 100.958C152.138 101.099 151.773 101.118 151.434 101.011C151.094 100.903 150.801 100.676 150.604 100.368C150.407 100.061 150.318 99.691 150.353 99.3225C150.388 98.9541 150.544 98.6096 150.795 98.3478C150.937 98.1988 151.106 98.0807 151.292 98.0002C151.478 97.9198 151.677 97.8786 151.878 97.879ZM151.878 97.6301C151.528 97.6301 151.185 97.7387 150.893 97.9422C150.601 98.1457 150.374 98.435 150.24 98.7734C150.106 99.1118 150.071 99.4841 150.14 99.8432C150.208 100.202 150.378 100.532 150.626 100.791C150.874 101.05 151.19 101.226 151.534 101.297C151.879 101.368 152.235 101.331 152.559 101.19C152.883 101.049 153.16 100.812 153.354 100.507C153.548 100.202 153.652 99.8439 153.651 99.4777C153.651 99.2348 153.605 98.9944 153.516 98.7701C153.427 98.5459 153.296 98.3421 153.131 98.1706C152.967 97.999 152.771 97.863 152.556 97.7702C152.341 97.6775 152.111 97.6299 151.878 97.6301Z" fill="black"/>
<path d="M151.404 100.024L151.496 99.8947C151.587 99.9876 151.709 100.04 151.836 100.042C151.99 100.042 152.113 99.9594 152.113 99.8284C152.113 99.6975 152 99.5924 151.687 99.5924V99.4437C151.966 99.4437 152.071 99.3467 152.071 99.2206C152.071 99.0945 151.976 99.0346 151.839 99.0346C151.73 99.0382 151.626 99.0824 151.546 99.1591L151.447 99.0346C151.557 98.9329 151.699 98.8755 151.846 98.873C152.086 98.873 152.264 98.9942 152.264 99.206C152.264 99.3547 152.161 99.4534 152.009 99.5067V99.5148C152.087 99.5234 152.16 99.5606 152.214 99.6197C152.269 99.6789 152.301 99.7563 152.306 99.8381C152.306 100.068 152.099 100.207 151.851 100.207C151.768 100.21 151.686 100.196 151.609 100.164C151.532 100.133 151.462 100.085 151.404 100.024Z" fill="black"/>
<path d="M159.201 97.9866C159.556 97.9866 159.899 98.1149 160.174 98.3498C160.448 98.5847 160.635 98.9115 160.705 99.2746C160.774 99.6378 160.72 100.015 160.553 100.341C160.386 100.668 160.116 100.924 159.788 101.065C159.46 101.207 159.096 101.226 158.756 101.118C158.417 101.011 158.123 100.784 157.926 100.476C157.729 100.168 157.641 99.7986 157.675 99.4302C157.71 99.0617 157.866 98.7172 158.117 98.4554C158.259 98.3064 158.428 98.1882 158.614 98.1077C158.8 98.0273 159 97.9861 159.201 97.9866ZM159.201 97.7377C158.85 97.7377 158.507 97.8462 158.216 98.0496C157.924 98.253 157.697 98.5421 157.563 98.8803C157.428 99.2185 157.393 99.5906 157.462 99.9496C157.53 100.309 157.699 100.638 157.947 100.897C158.195 101.156 158.511 101.332 158.855 101.404C159.199 101.475 159.555 101.439 159.88 101.299C160.204 101.158 160.48 100.921 160.675 100.617C160.87 100.312 160.974 99.9546 160.974 99.5886C160.974 99.3454 160.929 99.1047 160.84 98.88C160.751 98.6553 160.62 98.4512 160.455 98.2793C160.291 98.1074 160.095 97.9711 159.88 97.8781C159.665 97.7852 159.434 97.7375 159.201 97.7377Z" fill="#5A5773"/>
<path d="M159.224 99.3943C159.224 99.3151 159.224 99.2149 159.235 99.1357H159.224C159.181 99.2052 159.132 99.2747 159.088 99.3442L158.779 99.7661H159.616V99.9359H158.562V99.8001L159.19 98.9368H159.421V100.311H159.229L159.224 99.3943Z" fill="#5A5773"/>
<path d="M155.161 98.5319C155.191 98.5008 155.232 98.4833 155.275 98.4833C155.317 98.4833 155.358 98.5008 155.389 98.5319L156.188 99.3692C156.203 99.3843 156.215 99.4024 156.223 99.4224C156.231 99.4424 156.235 99.4639 156.235 99.4856C156.235 99.5073 156.231 99.5288 156.223 99.5488C156.215 99.5688 156.203 99.5869 156.188 99.602L155.401 100.426C155.387 100.443 155.369 100.456 155.349 100.466C155.329 100.475 155.308 100.479 155.286 100.479C155.265 100.479 155.244 100.475 155.224 100.466C155.204 100.456 155.186 100.443 155.172 100.426C155.156 100.411 155.144 100.393 155.135 100.372C155.126 100.352 155.122 100.33 155.122 100.308C155.122 100.285 155.126 100.263 155.135 100.243C155.144 100.222 155.156 100.204 155.172 100.189L155.847 99.4775L155.161 98.7695C155.145 98.7543 155.132 98.7359 155.124 98.7153C155.115 98.6947 155.11 98.6724 155.11 98.6499C155.11 98.6273 155.115 98.6051 155.124 98.5845C155.132 98.5639 155.145 98.5454 155.161 98.5302V98.5319Z" fill="#5A5773"/>
<path d="M153.799 99.4777C153.798 99.8376 153.9 100.19 154.091 100.489C154.282 100.789 154.554 101.022 154.873 101.16C155.191 101.298 155.542 101.335 155.88 101.265C156.218 101.195 156.529 101.021 156.773 100.767C157.016 100.512 157.182 100.188 157.249 99.8349C157.317 99.4818 157.282 99.1159 157.15 98.7834C157.017 98.451 156.794 98.167 156.507 97.9674C156.22 97.7679 155.882 97.6617 155.538 97.6623C155.077 97.6627 154.635 97.8541 154.309 98.1945C153.983 98.5348 153.799 98.9963 153.799 99.4777ZM154.067 99.4777C154.066 99.1211 154.184 98.7754 154.4 98.4994C154.616 98.2234 154.918 98.0343 155.253 97.9643C155.587 97.8943 155.935 97.9477 156.237 98.1154C156.538 98.2831 156.774 98.5548 156.905 98.8841C157.036 99.2134 157.054 99.5799 156.955 99.9212C156.856 100.262 156.646 100.557 156.363 100.755C156.079 100.954 155.738 101.043 155.398 101.008C155.058 100.973 154.74 100.816 154.499 100.564C154.361 100.422 154.252 100.253 154.178 100.066C154.104 99.8796 154.066 99.6796 154.067 99.4777Z" fill="#5A5773"/>
<path opacity="0.2" d="M60.3061 30.5603H26.3155C25.9854 30.5603 25.7178 30.8397 25.7178 31.1843V33.7918C25.7178 34.1365 25.9854 34.4158 26.3155 34.4158H60.3061C60.6362 34.4158 60.9038 34.1365 60.9038 33.7918V31.1843C60.9038 30.8397 60.6362 30.5603 60.3061 30.5603Z" fill="#5A5773"/>
<path d="M109.502 122.393C109.245 121.423 109.078 120.566 109.078 120.566C109.078 120.566 109.089 119.5 108.601 118.715L108.591 118.449L108.519 116.477C108.636 116.113 108.782 115.761 108.957 115.424C109.276 114.791 108.852 112.534 108.852 112.534C108.852 112.534 107.472 109.383 107.704 107.34C107.937 105.297 104.784 98.4249 104.784 98.4249C104.776 97.7504 104.843 97.0773 104.982 96.4188C105.007 96.2802 105.014 96.1389 105.004 95.9984C105.004 95.9807 105.004 95.9661 105.004 95.9467C105.004 95.9467 105.004 95.958 105.004 95.9629C104.912 94.626 103.805 92.156 103.805 92.156L103.765 87.3662C103.765 87.3662 104.309 84.5179 103.112 80.774C102.695 79.4678 102.42 78.4203 102.24 77.6088C102.22 77.5183 102.2 77.4294 102.183 77.3454C104.35 76.9105 105.993 76.5565 105.993 76.5565C105.993 76.5565 104.53 71.1007 103.643 70.1712C102.756 69.2417 101.963 66.2414 101.963 66.2414C101.963 66.2414 101.376 62.3698 102.049 61.2043C102.723 60.0388 102.754 58.0747 102.754 58.0747C102.754 58.0747 104.343 56.7686 104.527 56.2109C104.711 55.6532 105.005 54.3988 104.982 53.7441C104.959 53.0894 104.731 52.5139 104.787 52.1663C104.843 51.8188 104.25 50.5336 104.499 49.9032C104.562 49.7098 104.592 49.5061 104.586 49.3018C104.586 49.3018 104.586 49.2889 104.586 49.2841C104.586 49.2792 104.586 49.2841 104.586 49.276C104.568 48.7343 104.5 48.1956 104.383 47.6675C103.896 47.2692 103.333 46.9832 102.732 46.8286L102.69 46.6831L102.582 46.2935C102.526 46.2579 102.472 46.2272 102.418 46.1997L102.409 46.0591L102.373 45.5014L102.582 44.2405C103.003 42.0339 100.199 41.8157 100.199 41.8157C100.018 41.4869 99.7259 41.2403 99.38 41.1238C98.8102 40.9396 99.4079 44.4151 99.6788 44.6269C99.8817 44.7885 100.534 45.8586 100.848 46.3856L100.897 46.4713C100.854 46.517 100.813 46.5656 100.775 46.6168L100.91 47.3717L100.93 47.4865C100.754 47.7335 100.614 48.0058 100.513 48.2948C100.513 48.2948 101.046 48.8605 100.969 49.5185C100.891 50.1764 101.179 50.9814 101.193 51.0251C101.162 50.9895 100.788 50.5983 100.433 50.7115C100.078 50.8246 99.0858 51.1786 99.0858 51.1786C99.0858 51.1786 98.341 51.3403 98.4153 51.5165C98.4897 51.6927 97.9384 52.467 97.9384 52.467L95.8512 50.5547C95.8295 50.4965 95.8063 50.4383 95.7861 50.3768C95.692 50.0957 95.6225 49.8063 95.5787 49.512C95.796 49.4477 96.0087 49.3672 96.2151 49.2711C96.4239 49.1871 96.6104 49.0518 96.7585 48.8767C96.9521 48.6164 96.9784 48.2737 97.0497 47.9569C97.1859 47.3394 97.5142 46.7801 97.7325 46.1884C98.1079 45.1946 98.2066 44.1103 98.0174 43.0604C97.9733 42.7357 97.856 42.4266 97.6752 42.1584C97.3284 41.6993 96.726 41.5312 96.2816 41.1723C95.8372 40.8135 95.5322 40.2493 95.0166 39.9858C94.5521 39.7498 93.9946 39.8015 93.4837 39.9114C92.4792 40.1224 91.5213 40.5276 90.6594 41.1061C90.3729 41.2984 90.0586 41.5215 89.7179 41.4714C89.4268 41.4277 89.2054 41.195 89.0103 40.9719C89.0103 40.9622 89.0103 40.9525 89.0181 40.9428L88.9948 40.9153C88.8 41.4181 88.7133 41.9595 88.7409 42.5011C88.7409 42.5852 88.7471 42.6692 88.7595 42.7533C88.7595 42.7824 88.7595 42.8115 88.7672 42.8406C88.7688 42.8648 88.7688 42.8891 88.7672 42.9133C88.7682 42.9508 88.7646 42.9883 88.7564 43.0249C88.7177 43.1346 88.657 43.2343 88.5783 43.3175C88.5202 43.3924 88.4684 43.4725 88.4235 43.5567C88.4235 43.5276 88.439 43.4985 88.4482 43.471C88.3266 43.6717 88.2627 43.9045 88.264 44.1419C88.2593 44.3147 88.3199 44.4825 88.4328 44.6091C88.5374 44.7081 88.651 44.7963 88.7719 44.8726C88.7402 45.1054 88.7288 45.3408 88.7378 45.5758C88.7661 46.276 88.9675 46.9566 89.3224 47.5515C89.6773 48.1463 90.1736 48.6352 90.7631 48.9705L90.8374 49.1483C91.1208 49.845 91.3453 50.6613 91.288 51.426C91.288 51.4825 91.2772 51.5375 91.2694 51.5876C91.2447 51.6167 91.2214 51.6474 91.1998 51.6781C91.1998 51.6781 87.8753 51.8398 87.0655 51.1366C86.2557 50.4334 85.1563 53.0231 85.1563 53.0231C85.1563 53.0231 83.9733 53.3124 83.7271 53.0813C83.481 52.8501 82.0905 53.112 82.0905 53.112C81.4996 52.6052 80.7462 52.3521 79.9831 52.404C79.5046 52.0532 78.9806 51.7756 78.427 51.5795L78.3898 51.5666C78.1466 51.485 77.8889 51.4612 77.6357 51.4971C77.6357 51.4971 75.9495 50.1521 75.4447 49.4134C74.9399 48.6746 72.5647 45.9573 72.5538 45.9459L72.543 45.8085L72.5027 45.4012C72.4357 45.4143 72.368 45.423 72.2999 45.427C72.2865 45.3872 72.2695 45.3403 72.2488 45.2864C72.1033 44.895 71.9278 44.5166 71.7239 44.1548C71.7239 44.1548 71.7053 43.6375 71.8447 43.5082C71.984 43.3789 71.71 41.4876 71.71 41.4876C71.71 41.4876 70.1043 37.9506 68.8826 40.689C68.8826 40.689 66.4516 42.527 68.6209 44.4652C68.6209 44.4652 69.4725 44.8532 69.6026 45.1829C69.6877 45.3979 69.9943 45.9912 70.2003 46.3889L70.2916 46.5667L70.2684 46.5877L70.3118 46.9239L70.3288 47.0549C69.9432 47.3054 69.6846 47.5479 69.7559 47.7193C69.8831 48.0128 69.9746 48.3218 70.0284 48.6391C70.0284 48.6391 73.0633 52.3102 73.4984 53.9122C73.4984 53.9122 81.4417 58.4191 84.009 58.6615L83.6559 61.0863C83.6559 61.0863 83.5723 62.5412 83.625 63.052C83.6776 63.5628 83.4237 65.9214 83.4237 65.9214C83.4237 65.9214 83.114 69.3823 82.7517 69.8786C82.3893 70.3749 82.538 72.4376 82.538 72.4376C82.485 73.4301 82.3503 74.4161 82.1354 75.3845C81.8087 76.7068 82.1354 78.3137 82.1354 78.3137C82.1354 78.3137 80.9555 81.4643 83.9765 79.2399C83.9765 79.2399 85.4954 79.0783 87.2451 78.9473C87.2451 79.0071 87.2451 79.067 87.2451 79.13C87.2451 79.366 87.2544 79.615 87.2622 79.8898C87.304 81.6679 87.3845 84.1105 87.5285 85.9566C87.7855 89.2204 88.9778 95.6557 88.9778 95.6557L89.097 98.9066C89.0474 99.2146 89.0293 99.5273 89.0428 99.8393C89.063 100.986 89.3954 102.103 90.0013 103.059L90.3203 105.219C90.3203 105.219 90.9396 106.624 90.9737 107.482C90.9744 107.552 90.9692 107.622 90.9582 107.691C90.9411 107.801 90.9359 107.913 90.9427 108.024C90.9427 109.01 91.6024 111.343 91.6024 111.343C91.6024 111.343 91.7247 113.716 92.0669 113.84C92.3626 113.947 91.7278 115.224 91.5389 115.592C91.5389 115.57 91.528 115.547 91.5234 115.524L91.4847 115.597C91.4209 115.792 91.392 115.997 91.3995 116.202C91.3864 116.365 91.4179 116.528 91.4903 116.673C91.5626 116.818 91.6729 116.939 91.8083 117.021C92.471 117.409 92.8318 117.739 92.2867 117.899C92.086 117.942 91.8876 117.996 91.6922 118.061L91.6612 117.983C91.5904 118.02 91.5329 118.079 91.4974 118.152C91.4619 118.226 91.4504 118.31 91.4645 118.391C91.4553 118.564 91.5203 118.816 91.6968 119.188C92.2883 120.439 92.6847 120.906 92.6847 120.906L92.9448 120.864C92.9099 120.97 92.8626 121.071 92.8039 121.165C92.7104 121.318 92.583 121.445 92.4323 121.536C92.2918 121.632 92.1335 121.695 91.9678 121.722C91.783 121.736 91.6031 121.789 91.4397 121.881C91.2764 121.972 91.1334 122.098 91.0202 122.251C90.6981 122.723 90.5076 123.357 91.1998 123.879L93.6679 124.658C93.6679 124.658 97.878 125.059 97.6195 124.086C97.3609 123.112 97.1952 122.259 97.1952 122.259C97.1895 121.659 97.0512 121.068 96.7911 120.532C96.7456 120.445 96.6938 120.361 96.6362 120.282L96.7833 120.258C96.7833 120.258 97.0109 118.077 97.4027 117.649C97.4925 117.548 97.5111 117.476 97.4878 117.419C97.525 117.299 97.4166 117.235 97.2773 117.201C97.268 117.23 97.2587 117.257 97.2509 117.288C97.1196 117.264 96.9862 117.255 96.853 117.259C96.853 117.259 96.6749 116.127 97.1023 115.697C97.1365 115.649 97.1607 115.594 97.1732 115.535C97.1858 115.476 97.1864 115.415 97.1751 115.356C97.1732 115.201 97.1524 115.046 97.1131 114.896C97.1131 114.896 97.1038 114.913 97.0977 114.923C96.836 113.901 96.0215 112.293 96.0215 112.293C96.0215 112.293 95.9503 111.262 96.2073 110.838C96.4644 110.415 95.9658 105.229 95.9658 105.229C95.9658 105.229 95.9751 102.712 95.6251 101.554C95.2752 100.397 95.8992 98.9923 95.8992 98.9923C95.8992 98.9923 95.8992 98.9648 95.8883 98.9179C95.8916 98.9123 95.8942 98.9064 95.8961 98.9001C95.8961 98.9001 95.8759 98.7385 95.8419 98.5057C95.8419 98.5057 95.8419 98.5219 95.8419 98.5299C95.749 97.8672 95.574 96.6677 95.4579 96.1148C95.2922 95.3292 95.3232 91.5352 95.3232 91.5352L95.8775 89.8928L97.0698 92.6409L98.3642 96.3121C98.3642 96.3121 98.9681 97.0734 99.0099 97.8688C99.0099 97.9076 99.0099 97.9464 99.0099 97.9852C99.0099 98.0708 99.0099 98.1468 99.0099 98.2341C99.0072 98.7047 99.1482 99.1639 99.4125 99.5451C99.4125 99.5451 99.7841 101.288 100.277 101.716C100.769 102.144 100.803 103.009 100.803 103.009C100.803 103.009 101.475 105.533 101.765 105.969C102.008 106.338 102.059 107.374 102.074 107.691C102.074 107.749 102.074 107.783 102.074 107.783C102.074 107.783 102.189 108.69 102.214 109.456C102.214 109.55 102.214 109.642 102.214 109.728C102.214 109.728 102.214 109.715 102.214 109.708C102.221 109.917 102.205 110.126 102.166 110.331C102.166 110.34 102.166 110.353 102.156 110.366C102.156 110.322 102.156 110.279 102.156 110.237C102.055 110.761 102.016 111.296 102.04 111.831C102.059 112.747 102.232 113.826 102.786 114.441C103.747 115.507 104.321 115.345 104.321 115.345C104.321 115.345 103.929 116.74 103.392 117.038C103.372 117.049 103.353 117.062 103.336 117.078C103.336 117.052 103.324 117.025 103.319 116.999C103.262 117.07 103.221 117.153 103.196 117.243C103.172 117.332 103.166 117.426 103.178 117.518C103.161 118.125 103.564 119.094 103.928 119.532C104.06 119.658 104.219 119.747 104.392 119.794C104.366 119.815 104.338 119.834 104.309 119.852C104.249 119.889 104.188 119.923 104.124 119.952C104.038 119.997 103.944 120.026 103.849 120.039C103.664 120.052 103.484 120.106 103.321 120.197C103.158 120.289 103.015 120.415 102.903 120.568C102.581 121.038 102.389 121.672 103.081 122.194L105.55 122.973C105.55 122.973 109.761 123.366 109.502 122.393Z" fill="url(#paint1_linear)"/>
<path d="M93.5587 124.663L91.1696 123.887C90.4991 123.364 90.6818 122.73 90.9946 122.259C91.1017 122.108 91.2389 121.982 91.3968 121.891C91.5548 121.8 91.7297 121.745 91.9097 121.731C92.0689 121.704 92.2206 121.641 92.3541 121.547C92.5014 121.455 92.6252 121.327 92.7148 121.175C92.876 120.883 92.9569 120.55 92.9486 120.213C92.9486 120.213 95.508 119.317 96.245 120.08C96.3768 120.218 96.4884 120.376 96.5764 120.548C96.8294 121.084 96.9643 121.673 96.9712 122.271C96.9712 122.271 97.1338 123.124 97.3846 124.097C97.6354 125.071 93.5587 124.663 93.5587 124.663Z" fill="#2D293D"/>
<path d="M105.059 122.986L102.669 122.204C101.998 121.68 102.183 121.046 102.494 120.576C102.601 120.424 102.738 120.298 102.896 120.207C103.054 120.116 103.229 120.062 103.409 120.049C103.502 120.035 103.592 120.006 103.675 119.961C103.737 119.933 103.797 119.9 103.855 119.863C104.5 119.457 104.448 118.529 104.448 118.529C104.448 118.529 107.007 117.633 107.746 118.396C107.844 118.5 107.932 118.614 108.006 118.738C108.48 119.522 108.471 120.592 108.471 120.592C108.471 120.592 108.635 121.447 108.884 122.419C109.133 123.39 105.059 122.986 105.059 122.986Z" fill="#2D293D"/>
<path opacity="0.1" d="M96.2455 120.074C96.3772 120.212 96.4889 120.369 96.5768 120.541L92.7151 121.166C92.8763 120.874 92.9572 120.541 92.9489 120.205C92.9489 120.205 95.5084 119.311 96.2455 120.074Z" fill="black"/>
<path opacity="0.1" d="M108.002 118.738L108.029 119.496C107.466 120.558 104.538 120.448 103.671 119.961C103.733 119.933 103.793 119.9 103.85 119.863C104.496 119.457 104.443 118.529 104.443 118.529C104.443 118.529 107.003 117.633 107.741 118.396C107.84 118.5 107.927 118.614 108.002 118.738Z" fill="black"/>
<path d="M108.341 115.452C108.172 115.789 108.031 116.141 107.919 116.503L108.019 119.222C107.4 120.384 103.958 120.143 103.473 119.545C102.988 118.947 102.436 117.346 102.953 117.049C103.47 116.752 103.848 115.36 103.848 115.36C103.848 115.36 103.292 115.521 102.361 114.454C101.431 113.388 101.604 110.934 101.742 110.342C101.88 109.75 101.646 107.794 101.646 107.794C101.646 107.794 101.629 106.417 101.349 105.981C101.068 105.544 100.42 103.019 100.42 103.019C100.42 103.019 100.389 102.158 99.9103 101.726C99.4318 101.294 99.071 99.5533 99.071 99.5533C98.7849 99.1254 98.6493 98.6075 98.687 98.0871C98.7536 97.2223 98.0599 96.3186 98.0599 96.3186L96.8026 92.6475L95.6444 89.8994L95.1102 91.5418C95.1102 91.5418 95.0854 95.3342 95.2465 96.1198C95.4075 96.9054 95.6831 98.9988 95.6831 98.9988C95.6831 98.9988 95.0731 100.402 95.4137 101.559C95.7544 102.717 95.7466 105.235 95.7466 105.235C95.7466 105.235 96.2359 110.421 95.9866 110.845C95.7373 111.268 95.8101 112.3 95.8101 112.3C95.8101 112.3 97.2733 115.274 96.8599 115.704C96.4465 116.134 96.6199 117.264 96.6199 117.264C96.6199 117.264 97.5489 117.227 97.1618 117.657C96.7747 118.087 96.5657 120.266 96.5657 120.266L92.5972 120.912C92.5972 120.912 92.2132 120.445 91.6387 119.192C91.0643 117.94 91.696 118.053 92.2209 117.899C92.7458 117.746 92.399 117.414 91.7564 117.021C91.1138 116.629 91.4467 115.689 91.4467 115.689C91.4467 115.689 92.3401 113.965 92.0057 113.84C91.6712 113.716 91.5505 111.343 91.5505 111.343C91.5505 111.343 90.7871 108.546 90.9311 107.786C91.0751 107.027 90.3117 105.226 90.3117 105.226L90.0021 103.066C88.7231 100.969 89.1102 98.9924 89.1102 98.9924L88.9863 95.6526C88.9863 95.6526 87.825 89.2189 87.5726 85.9535C87.4178 83.8617 87.3295 81.0037 87.2924 79.219C87.2707 78.2168 87.2629 77.554 87.2629 77.554L101.449 75.4331C101.449 75.4331 101.46 76.1201 101.788 77.6316C101.963 78.4398 102.231 79.4906 102.637 80.7984C103.798 84.5422 103.276 87.3906 103.276 87.3906L103.321 92.1803C103.321 92.1803 104.692 95.3309 104.469 96.4431C104.337 97.1022 104.275 97.7744 104.284 98.4476C104.284 98.4476 107.344 105.323 107.123 107.366C106.901 109.409 108.238 112.56 108.238 112.56C108.238 112.56 108.648 114.818 108.341 115.452Z" fill="#575988"/>
<path opacity="0.05" d="M99.5381 97.8462L103.852 97.0688C103.852 97.0688 101.498 99.7839 99.5381 97.8462Z" fill="black"/>
<path opacity="0.1" d="M103.061 92.6717C103.061 92.6717 103.269 94.2656 102.351 94.9057C102.351 94.9057 104.023 94.563 103.061 92.6717Z" fill="black"/>
<path opacity="0.1" d="M102.608 87.587C102.608 87.587 99.0976 90.8475 97.7707 90.6422C96.4437 90.4369 102.608 87.587 102.608 87.587Z" fill="black"/>
<path opacity="0.1" d="M94.2204 99.5247C94.2204 99.5247 91.4894 100.286 91.4492 101.445C91.4089 102.604 94.2204 99.5247 94.2204 99.5247Z" fill="black"/>
<path opacity="0.05" d="M95.3523 113.852C95.3523 113.852 91.4905 114.766 92.6131 115.238C93.7357 115.71 95.566 116.046 95.566 116.046C95.566 116.046 96.8202 116.069 95.3523 113.852Z" fill="black"/>
<g opacity="0.05">
<path opacity="0.05" d="M91.8578 116.088C91.7581 116.028 91.6726 115.945 91.6075 115.846C91.5424 115.746 91.4994 115.633 91.4816 115.514L91.4444 115.589C91.4444 115.589 91.1146 116.533 91.7541 116.921C91.8284 116.964 91.8965 117.008 91.9631 117.052C92.0761 117.024 92.2015 117.003 92.3192 116.966C92.8487 116.808 92.5004 116.476 91.8578 116.088Z" fill="black"/>
<path opacity="0.05" d="M96.8529 115.613C96.9568 115.505 96.9428 115.241 96.8653 114.903C96.6994 115.178 96.6715 115.594 96.6808 115.909C96.7165 115.798 96.7753 115.697 96.8529 115.613Z" fill="black"/>
<path opacity="0.05" d="M95.6296 98.5073C95.5012 98.92 95.4282 99.3492 95.4128 99.7828C95.4764 99.4805 95.5666 99.1851 95.6823 98.9001C95.6823 98.9001 95.6621 98.753 95.6296 98.5073Z" fill="black"/>
<path opacity="0.05" d="M104.47 96.3484C104.492 96.2237 104.499 96.0967 104.493 95.9701C104.453 96.2304 104.428 96.4696 104.411 96.6798C104.428 96.5682 104.448 96.4615 104.47 96.3484Z" fill="black"/>
<path opacity="0.05" d="M95.987 110.753C96.0366 110.667 96.0568 110.381 96.0568 109.985C95.9465 110.295 95.8938 110.624 95.9016 110.955C95.9222 110.884 95.9509 110.816 95.987 110.753Z" fill="black"/>
<path opacity="0.05" d="M97.0429 117.21C96.7998 117.996 96.6666 119.342 96.6666 119.342L92.6981 119.989C92.6981 119.989 92.3141 119.522 91.7427 118.266C91.6932 118.156 91.6513 118.057 91.6188 117.967C91.385 118.091 91.2999 118.353 91.6421 119.098C92.2165 120.351 92.599 120.818 92.599 120.818L96.5675 120.172C96.5675 120.172 96.7843 117.991 97.1652 117.561C97.3495 117.354 97.221 117.259 97.0429 117.21Z" fill="black"/>
<path opacity="0.05" d="M91.5478 111.241C91.5478 111.241 91.6686 113.616 92.003 113.74C92.1579 113.339 92.2523 112.962 92.1021 112.908C91.7677 112.783 91.6469 110.408 91.6469 110.408C91.6469 110.408 90.8836 107.613 91.0276 106.852C91.1716 106.091 90.4083 104.291 90.4083 104.291L90.0986 102.133C88.8336 100.046 89.2222 98.0662 89.2222 98.0662L89.0984 94.728C89.0984 94.728 87.9371 88.2943 87.6847 85.0289C87.5299 82.9387 87.4416 80.0791 87.4045 78.2944C87.4045 77.9711 87.3921 77.6866 87.3874 77.4457L87.2744 77.4619C87.2744 77.4619 87.2744 78.1247 87.3023 79.1269C87.341 80.9051 87.4215 83.7696 87.5841 85.8598C87.8365 89.1252 88.9977 95.5589 88.9977 95.5589L89.1107 98.8955C89.1107 98.8955 88.7221 100.876 89.9871 102.963L90.2968 105.122C90.2968 105.122 91.057 106.918 90.9161 107.681C90.7752 108.444 91.5478 111.241 91.5478 111.241Z" fill="black"/>
<path opacity="0.05" d="M103.574 118.616C103.231 118.141 102.995 117.591 102.882 117.008C102.489 117.407 103.012 118.876 103.472 119.448C103.957 120.05 107.399 120.291 108.017 119.125L107.992 118.469C107.136 119.431 104.031 119.185 103.574 118.616Z" fill="black"/>
<path opacity="0.05" d="M108.441 114.527C108.272 114.864 108.13 115.215 108.018 115.577L108.035 116.062C108.103 115.883 108.203 115.644 108.345 115.359C108.44 115.084 108.478 114.792 108.458 114.501C108.449 114.51 108.446 114.518 108.441 114.527Z" fill="black"/>
<path opacity="0.05" d="M103.653 115.263C103.768 114.993 103.867 114.715 103.947 114.432C103.947 114.432 103.391 114.593 102.461 113.526C101.784 112.75 101.687 111.239 101.747 110.246C101.603 110.838 101.43 113.292 102.367 114.357C102.969 115.054 103.416 115.227 103.653 115.263Z" fill="black"/>
<path opacity="0.05" d="M101.654 107.698C101.736 108.374 101.783 109.054 101.795 109.735C101.807 109.626 101.825 109.518 101.85 109.412C101.994 108.82 101.754 106.866 101.754 106.866C101.754 106.866 101.737 105.487 101.457 105.051C101.177 104.614 100.528 102.089 100.528 102.089C100.528 102.089 100.497 101.229 100.018 100.796C99.5399 100.363 99.176 98.6281 99.176 98.6281C98.8891 98.2006 98.7534 97.6823 98.792 97.1619C98.8586 96.2971 98.1726 95.3951 98.1726 95.3951L96.9044 91.7175L95.7461 88.9694L95.2119 90.6182C95.2119 90.6182 95.2119 90.8219 95.2119 91.142L95.6455 89.8083L96.8038 92.5564L98.0627 96.2292C98.0627 96.2292 98.7564 97.1328 98.6821 97.996C98.644 98.5169 98.7797 99.0355 99.0661 99.4638C99.0661 99.4638 99.4284 101.206 99.9054 101.636C100.382 102.066 100.416 102.93 100.416 102.93C100.416 102.93 101.07 105.455 101.345 105.891C101.621 106.328 101.654 107.698 101.654 107.698Z" fill="black"/>
</g>
<path d="M102.086 44.2617L101.885 45.5291L101.92 46.0868L101.945 46.499L100.577 46.7027L100.411 46.4117C100.101 45.8847 99.4742 44.813 99.2776 44.6513C99.0144 44.4396 98.4322 40.964 98.9849 41.1483C99.322 41.2695 99.6043 41.5165 99.7777 41.8418C99.7777 41.8418 102.492 42.0568 102.086 44.2617Z" fill="#FFCDD3"/>
<path opacity="0.1" d="M101.945 46.4989L100.577 46.7026L100.411 46.4117C100.588 46.1839 100.835 46.0272 101.11 45.9683C101.386 45.9093 101.672 45.9518 101.921 46.0883L101.945 46.4989Z" fill="black"/>
<path d="M102.318 47.1668L100.52 47.6776L100.471 47.398L100.341 46.643C100.341 46.643 101.022 45.6149 102.087 46.3197L102.193 46.7028L102.318 47.1668Z" fill="#DCE6F2"/>
<path d="M72.8306 45.5743L70.9353 46.7383C70.9353 46.7383 70.8548 46.5766 70.7448 46.3632C70.5466 45.9672 70.2493 45.3707 70.1657 45.1573C70.0387 44.834 69.2149 44.4363 69.2149 44.4363C67.1137 42.4964 69.4642 40.6616 69.4642 40.6616C70.6426 37.9248 72.2019 41.4699 72.2019 41.4699C72.2019 41.4699 72.4683 43.3564 72.3335 43.4906C72.1988 43.6248 72.2174 44.1372 72.2174 44.1372C72.4168 44.4991 72.5872 44.8776 72.7269 45.2688C72.795 45.458 72.8306 45.5743 72.8306 45.5743Z" fill="#FFCDD3"/>
<path opacity="0.1" d="M72.8308 45.574L70.9356 46.7379C70.9356 46.7379 70.8551 46.5763 70.7451 46.3629C71.0099 46.1139 71.9482 45.254 72.2688 45.2782C72.4232 45.2935 72.5788 45.2935 72.7333 45.2782C72.7952 45.4576 72.8308 45.574 72.8308 45.574Z" fill="black"/>
<path d="M73.0508 46.1783L70.9171 47.3842L70.8551 46.8993L70.8118 46.563C70.8118 46.563 72.0319 45.3846 72.4051 45.4121C72.5946 45.4324 72.786 45.4242 72.9733 45.3878L73.0136 45.7968L73.0508 46.1783Z" fill="#DCE6F2"/>
<path d="M97.1193 52.8208C97.1193 52.8208 87.6737 54.3193 89.4235 53.6468C90.6421 53.178 91.1036 52.3391 91.1717 51.4257C91.2274 50.6611 91.0168 49.8448 90.735 49.1481C90.4877 48.5321 90.1811 47.9439 89.8199 47.3926C89.8199 47.3926 96.9196 42.9358 95.6142 46.7783C95.4109 47.3597 95.2944 47.9704 95.2689 48.5888C95.2466 49.2028 95.3321 49.8158 95.5213 50.3977C95.8294 51.3439 96.3825 52.1827 97.1193 52.8208Z" fill="#FFCDD3"/>
<path opacity="0.1" d="M95.6138 46.7787C95.4104 47.3601 95.294 47.9708 95.2685 48.5892C94.6073 49.2164 93.8564 49.2067 92.8949 49.2455C92.1547 49.2746 91.3465 49.4945 90.7395 49.1469C90.4923 48.5309 90.1857 47.9427 89.8245 47.3913C89.8245 47.3913 96.919 42.9362 95.6138 46.7787Z" fill="black"/>
<path d="M92.6191 49.5173C94.7878 49.5173 96.5459 47.6818 96.5459 45.4177C96.5459 43.1536 94.7878 41.3182 92.6191 41.3182C90.4504 41.3182 88.6924 43.1536 88.6924 45.4177C88.6924 47.6818 90.4504 49.5173 92.6191 49.5173Z" fill="#FFCDD3"/>
<path opacity="0.1" d="M97.1193 52.8209C97.1193 52.8209 87.6737 54.3194 89.4235 53.647C90.6421 53.1782 91.1036 52.3392 91.1717 51.4259C91.6254 50.8731 92.5653 50.456 93.1615 50.22C93.7109 50.0029 94.3113 49.9685 94.8802 50.1214C95.1042 50.1812 95.3187 50.2748 95.5167 50.3994C95.8263 51.3457 96.381 52.1839 97.1193 52.8209Z" fill="black"/>
<path opacity="0.1" d="M102.319 47.1669L100.521 47.6777L100.471 47.3981C100.655 47.1117 100.919 46.8914 101.227 46.7674C101.535 46.6433 101.873 46.6214 102.193 46.7047L102.319 47.1669Z" fill="black"/>
<path opacity="0.1" d="M73.0504 46.1787L70.9167 47.3847L70.8547 46.8997C71.615 46.3889 72.9017 45.8441 73.0132 45.7972L73.0504 46.1787Z" fill="black"/>
<path opacity="0.1" d="M101.792 77.63C98.1411 78.3834 92.94 79.3825 92.1007 79.1513C91.4039 78.9605 89.2067 79.0721 87.3007 79.2176C87.279 78.2153 87.2712 77.5524 87.2712 77.5524L101.458 75.4314C101.458 75.4314 101.464 76.1185 101.792 77.63Z" fill="black"/>
<path d="M105.425 76.5826C105.425 76.5826 93.4046 79.237 92.09 78.8765C90.7754 78.516 84.1265 79.2305 84.1265 79.2305C81.2031 81.45 82.3427 78.3026 82.3427 78.3026C82.3427 78.3026 82.0191 76.6958 82.3335 75.3735C82.5403 74.4046 82.6698 73.4194 82.7206 72.4282C82.7206 72.4282 82.5781 70.3655 82.9234 69.8692C83.2687 69.3729 83.5691 65.9135 83.5691 65.9135C83.5691 65.9135 83.8122 63.5583 83.7611 63.0442C83.71 62.5301 83.7874 61.0785 83.7874 61.0785L84.1265 58.6537C81.6491 58.408 73.9473 53.8914 73.9473 53.8914C73.5245 52.2878 70.5826 48.6151 70.5826 48.6151C70.5308 48.2983 70.4418 47.9894 70.3178 47.6953C70.0995 47.1521 73.026 45.9316 73.026 45.9316C73.026 45.9316 75.3393 48.6652 75.8286 49.4039C76.3179 50.1427 77.953 51.4893 77.953 51.4893C78.1981 51.4549 78.4475 51.4792 78.6823 51.5604C78.6955 51.5629 78.7085 51.5667 78.721 51.5717C79.2597 51.7698 79.7681 52.0481 80.2307 52.3978C81.4137 52.2814 82.27 53.109 82.27 53.109C82.27 53.109 83.614 52.8488 83.854 53.0799C84.094 53.3111 85.2383 53.025 85.2383 53.025C85.2383 53.025 86.2989 50.4304 87.084 51.1401C87.869 51.8498 91.0866 51.6865 91.0866 51.6865C91.4939 51.0738 92.5205 50.605 93.1646 50.3593C93.7141 50.1422 94.3144 50.1078 94.8833 50.2607C95.1301 50.3263 95.3642 50.4357 95.5755 50.584L97.6008 52.5012C97.6008 52.5012 98.1335 51.722 98.0653 51.5523C97.9972 51.3826 98.7141 51.2161 98.7141 51.2161C98.7141 51.2161 99.6586 50.8669 100.018 50.7505C100.377 50.6341 100.724 51.0286 100.753 51.0641C100.741 51.0205 100.462 50.1977 100.535 49.5575C100.608 48.9174 100.094 48.3338 100.094 48.3338C101.139 45.3271 103.835 47.7017 103.835 47.7017C103.835 47.7017 104.191 49.307 103.949 49.9374C103.708 50.5678 104.284 51.8546 104.231 52.2005C104.178 52.5465 104.397 53.1252 104.422 53.7783C104.446 54.4313 104.158 55.6696 103.976 56.2338C103.793 56.7979 102.272 58.0944 102.272 58.0944C102.272 58.0944 102.246 60.0601 101.596 61.2224C100.945 62.3847 101.517 66.2595 101.517 66.2595C101.517 66.2595 102.291 69.2614 103.147 70.1925C104.003 71.1236 105.425 76.5826 105.425 76.5826Z" fill="#656691"/>
<path opacity="0.1" d="M86.9502 54.6434C86.9502 54.6434 86.546 53.5215 86.2115 53.4326C85.879 53.3191 85.5541 53.1824 85.239 53.0236L85.4357 52.5904C85.4357 52.5904 86.6885 52.8959 86.8991 53.2661C87.1097 53.6363 86.9502 54.6434 86.9502 54.6434Z" fill="black"/>
<path opacity="0.1" d="M80.2324 52.3958C80.1782 52.7434 77.2563 53.1701 77.2563 53.1701L78.6824 51.5536L78.7196 51.5665C79.2595 51.7654 79.769 52.0447 80.2324 52.3958Z" fill="black"/>
<path d="M71.5672 48.2883C71.7126 48.2883 71.8304 48.1653 71.8304 48.0135C71.8304 47.8617 71.7126 47.7387 71.5672 47.7387C71.4218 47.7387 71.304 47.8617 71.304 48.0135C71.304 48.1653 71.4218 48.2883 71.5672 48.2883Z" fill="#575988"/>
<path d="M71.9246 48.8251C72.07 48.8251 72.1878 48.702 72.1878 48.5503C72.1878 48.3985 72.07 48.2755 71.9246 48.2755C71.7792 48.2755 71.6614 48.3985 71.6614 48.5503C71.6614 48.702 71.7792 48.8251 71.9246 48.8251Z" fill="#575988"/>
<path d="M72.2725 49.3195C72.4179 49.3195 72.5357 49.1965 72.5357 49.0447C72.5357 48.8929 72.4179 48.7699 72.2725 48.7699C72.1271 48.7699 72.0093 48.8929 72.0093 49.0447C72.0093 49.1965 72.1271 49.3195 72.2725 49.3195Z" fill="#575988"/>
<path d="M72.6407 49.856C72.786 49.856 72.9039 49.7329 72.9039 49.5812C72.9039 49.4294 72.786 49.3063 72.6407 49.3063C72.4953 49.3063 72.3774 49.4294 72.3774 49.5812C72.3774 49.7329 72.4953 49.856 72.6407 49.856Z" fill="#575988"/>
<path d="M103.717 48.5275C103.836 48.5275 103.932 48.4269 103.932 48.3028C103.932 48.1787 103.836 48.0781 103.717 48.0781C103.598 48.0781 103.502 48.1787 103.502 48.3028C103.502 48.4269 103.598 48.5275 103.717 48.5275Z" fill="#575988"/>
<path d="M103.768 49.0338C103.887 49.0338 103.983 48.9332 103.983 48.8091C103.983 48.685 103.887 48.5844 103.768 48.5844C103.649 48.5844 103.553 48.685 103.553 48.8091C103.553 48.9332 103.649 49.0338 103.768 49.0338Z" fill="#575988"/>
<path d="M103.816 49.5397C103.935 49.5397 104.031 49.4391 104.031 49.315C104.031 49.1909 103.935 49.0903 103.816 49.0903C103.697 49.0903 103.601 49.1909 103.601 49.315C103.601 49.4391 103.697 49.5397 103.816 49.5397Z" fill="#575988"/>
<path opacity="0.1" d="M87.3114 63.9697C87.2789 63.9293 95.072 73.4295 100.628 67.5357C100.634 67.5357 91.5649 69.1926 87.3114 63.9697Z" fill="black"/>
<path opacity="0.1" d="M83.2271 69.2346C83.2271 69.2346 87.6787 69.1829 88.1928 70.4988L88.2439 71.889C88.1203 71.9679 87.9794 72.0124 87.8347 72.0184C87.6899 72.0243 87.5462 71.9915 87.417 71.923C86.9525 71.687 84.218 70.3694 83.2952 71.0937L83.2271 69.2346Z" fill="black"/>
<path d="M83.3123 69.232C83.3123 69.232 87.5704 69.1819 88.0612 70.4379L88.1108 71.7618C87.9923 71.8369 87.8576 71.8792 87.7192 71.8849C87.5807 71.8905 87.4432 71.8593 87.3195 71.7941C86.8813 71.5711 84.2599 70.3134 83.3773 71.0053L83.3123 69.232Z" fill="#656691"/>
<path opacity="0.1" d="M85.2852 59.0642C85.7807 60.1434 86.3983 61.1566 87.1249 62.0823C87.9161 63.1075 88.8623 63.9909 89.9262 64.6978C89.9262 64.6978 85.3843 59.6914 85.2852 59.0642Z" fill="black"/>
<path opacity="0.1" d="M83.6311 53.7201C83.6311 53.7201 84.4967 57.034 86.4508 58.0928L83.6311 53.7201Z" fill="black"/>
<path opacity="0.1" d="M82.5066 54.1028C82.485 54.0414 81.9446 56.7732 85.1233 58.144C85.1233 58.1456 83.7793 57.7285 82.5066 54.1028Z" fill="black"/>
<path opacity="0.1" d="M101.843 51.0798C101.794 51.0798 103.424 52.0755 103.873 52.5491C103.873 52.5491 102.78 50.9812 101.843 51.0798Z" fill="black"/>
<path d="M91.6965 49.1742C91.76 49.3827 91.8374 49.6106 92.0232 49.7141C92.1403 49.7687 92.2683 49.7931 92.3964 49.7852C93.5949 49.8159 94.8414 49.8208 95.9299 49.3002C96.1339 49.2155 96.3148 49.0794 96.4564 48.9042C96.6437 48.6456 96.6685 48.3029 96.7366 47.986C96.8683 47.3685 97.1795 46.8092 97.3963 46.2175C97.7611 45.217 97.8554 44.131 97.6688 43.0782C97.6265 42.7546 97.5125 42.4458 97.3359 42.1762C97.0014 41.7155 96.4161 41.5474 95.9826 41.1885C95.549 40.8297 95.2579 40.2639 94.7577 40.0004C94.3071 39.7627 93.7683 39.8145 93.2743 39.9228C92.3014 40.1366 91.3768 40.5432 90.5506 41.1206C90.2735 41.313 89.97 41.5361 89.6402 41.4843C89.3506 41.4407 89.1338 41.1966 88.9403 40.9687C88.7277 41.5396 88.6496 42.1556 88.7127 42.7646C88.7274 42.854 88.7274 42.9453 88.7127 43.0346C88.6756 43.1431 88.6171 43.2423 88.5408 43.3256C88.259 43.6958 88.0948 44.268 88.3999 44.6188C88.533 44.7707 88.7312 44.8483 88.8644 45.0035C89.0967 45.2832 89.0378 45.7002 89.0456 46.0688C89.0375 46.1971 89.0732 46.3242 89.1462 46.4277C89.2123 46.4869 89.2919 46.5274 89.3773 46.5452C89.4628 46.563 89.5511 46.5576 89.634 46.5295C89.799 46.4698 89.9738 46.4451 90.1481 46.4568C90.336 46.5119 90.5 46.6329 90.6126 46.7995C91.1871 47.5027 91.4333 48.2996 91.6965 49.1742Z" fill="#2D293D"/>
<g opacity="0.1">
<path opacity="0.1" d="M96.5761 48.5798C96.435 48.7545 96.2547 48.8901 96.0512 48.9743C94.9672 49.4997 93.7161 49.4948 92.516 49.4592C92.388 49.4661 92.2602 49.4418 92.1428 49.3881C91.9585 49.2847 91.8796 49.0551 91.8161 48.8466C91.5528 47.9736 91.3066 47.175 90.7321 46.4637C90.6189 46.2983 90.455 46.178 90.2676 46.1227C90.0934 46.1111 89.9188 46.1353 89.7535 46.1938C89.6705 46.2221 89.582 46.2278 89.4963 46.2102C89.4107 46.1927 89.3307 46.1525 89.2642 46.0936C89.1918 45.9891 89.1563 45.8617 89.1635 45.7331C89.1558 45.3645 89.2146 44.9474 88.9839 44.6694C88.8538 44.5077 88.6556 44.4366 88.5194 44.283C88.433 44.1691 88.3777 44.033 88.3592 43.8891C88.3406 43.7452 88.3596 43.5987 88.4141 43.465C88.2174 43.8207 88.1431 44.2733 88.3986 44.5643C88.5302 44.7162 88.7299 44.7938 88.8631 44.9506C89.0954 45.2287 89.0365 45.6458 89.0443 46.0143C89.0362 46.1426 89.0719 46.2697 89.1449 46.3732C89.211 46.4324 89.2906 46.4729 89.3761 46.4907C89.4615 46.5086 89.5499 46.5032 89.6327 46.4751C89.7979 46.4161 89.9725 46.3914 90.1468 46.4023C90.3348 46.4575 90.4988 46.5785 90.6114 46.745C91.192 47.4563 91.4367 48.2533 91.6953 49.1278C91.7588 49.3364 91.8362 49.5643 92.022 49.6694C92.1394 49.7233 92.2672 49.7477 92.3952 49.7405C93.5937 49.7696 94.8403 49.7745 95.9288 49.2556C96.1325 49.1708 96.3132 49.0354 96.4553 48.8611C96.5246 48.7577 96.5769 48.643 96.6102 48.5216C96.6009 48.541 96.59 48.5572 96.5761 48.5798Z" fill="black"/>
<path opacity="0.1" d="M88.7224 42.9166C88.7734 42.855 88.8114 42.7828 88.8339 42.7049C88.8494 42.6161 88.8494 42.5252 88.8339 42.4365C88.7818 41.9362 88.8255 41.4301 88.9624 40.9476L88.9392 40.9201C88.7267 41.4911 88.6486 42.1071 88.7116 42.7162C88.7213 42.7825 88.725 42.8496 88.7224 42.9166Z" fill="black"/>
</g>
<path opacity="0.1" d="M91.0876 51.6849C91.0876 51.6849 96.0131 52.1699 96.4265 51.3794L91.0876 51.6849Z" fill="black"/>
<path opacity="0.1" d="M100.538 49.1836C100.538 49.1836 103.262 49.0786 103.899 50.1195L100.538 49.1836Z" fill="black"/>
<path d="M160.091 103.195C160.091 103.195 161.009 104.448 159.667 106.341C158.324 108.234 157.219 109.831 157.666 111.011C157.666 111.011 159.692 107.497 161.339 107.446C162.987 107.396 161.904 105.306 160.091 103.195Z" fill="black"/>
<path opacity="0.1" d="M160.092 103.195C160.172 103.316 160.235 103.448 160.279 103.588C161.888 105.56 162.744 107.401 161.199 107.446C159.759 107.49 158.031 110.178 157.617 110.856C157.631 110.91 157.647 110.964 157.667 111.017C157.667 111.017 159.692 107.503 161.34 107.453C162.987 107.403 161.905 105.306 160.092 103.195Z" fill="black"/>
<path d="M161.799 104.791C161.799 105.232 161.751 105.59 161.692 105.59C161.633 105.59 161.587 105.232 161.587 104.791C161.587 104.35 161.646 104.559 161.704 104.559C161.763 104.559 161.799 104.35 161.799 104.791Z" fill="#FFD037"/>
<path d="M162.384 105.318C162.013 105.528 161.689 105.655 161.661 105.602C161.633 105.549 161.912 105.334 162.281 105.117C162.649 104.901 162.505 105.059 162.535 105.117C162.564 105.175 162.754 105.106 162.384 105.318Z" fill="#FFD037"/>
<path d="M155.242 103.195C155.242 103.195 154.324 104.448 155.665 106.341C157.006 108.234 158.115 109.831 157.667 111.011C157.667 111.011 155.642 107.497 153.994 107.446C152.347 107.396 153.429 105.306 155.242 103.195Z" fill="black"/>
<path opacity="0.1" d="M155.242 103.195C155.161 103.316 155.098 103.448 155.055 103.588C153.446 105.56 152.59 107.401 154.135 107.446C155.575 107.49 157.302 110.178 157.717 110.856C157.703 110.91 157.686 110.964 157.667 111.017C157.667 111.017 155.642 107.503 153.994 107.453C152.347 107.403 153.429 105.306 155.242 103.195Z" fill="black"/>
<path d="M153.534 104.791C153.534 105.232 153.582 105.59 153.641 105.59C153.7 105.59 153.746 105.232 153.746 104.791C153.746 104.35 153.687 104.559 153.629 104.559C153.57 104.559 153.534 104.35 153.534 104.791Z" fill="#FFD037"/>
<path d="M152.948 105.318C153.32 105.528 153.644 105.655 153.672 105.602C153.699 105.549 153.421 105.334 153.052 105.117C152.684 104.901 152.826 105.059 152.798 105.117C152.77 105.175 152.577 105.106 152.948 105.318Z" fill="#FFD037"/>
<path opacity="0.1" d="M157.665 120.599C162.967 120.599 167.265 119.911 167.265 119.062C167.265 118.213 162.967 117.524 157.665 117.524C152.363 117.524 148.065 118.213 148.065 119.062C148.065 119.911 152.363 120.599 157.665 120.599Z" fill="black"/>
<path d="M162.606 109.32L162.56 109.711L162.497 110.264L162.47 110.495L162.405 111.048L162.377 111.279L162.312 111.831L161.578 118.119C161.512 118.68 160.634 119.118 159.575 119.118H155.757C154.696 119.118 153.82 118.68 153.755 118.119L153.018 111.831L152.954 111.279L152.928 111.048L152.861 110.495L152.835 110.264L152.77 109.711L152.725 109.32C152.688 108.997 153.163 108.735 153.763 108.735H161.575C162.168 108.735 162.645 109.002 162.606 109.32Z" fill="#65617D"/>
<path d="M162.561 109.712L162.496 110.265H152.834L152.771 109.712H162.561Z" fill="#9D9CB5"/>
<path d="M162.469 110.494L162.406 111.048H152.927L152.862 110.494H162.469Z" fill="#9D9CB5"/>
<path d="M162.376 111.278L162.313 111.831H153.018L152.953 111.278H162.376Z" fill="#9D9CB5"/>
<defs>
<linearGradient id="paint0_linear" x1="94.4244" y1="108.96" x2="94.4244" y2="21.9372" gradientUnits="userSpaceOnUse">
<stop stop-color="#808080" stop-opacity="0.25"/>
<stop offset="0.54" stop-color="#808080" stop-opacity="0.12"/>
<stop offset="1" stop-color="#808080" stop-opacity="0.1"/>
</linearGradient>
<linearGradient id="paint1_linear" x1="28921.1" y1="68297.9" x2="27105.7" y2="23032.6" gradientUnits="userSpaceOnUse">
<stop stop-color="#808080" stop-opacity="0.25"/>
<stop offset="0.54" stop-color="#808080" stop-opacity="0.12"/>
<stop offset="1" stop-color="#808080" stop-opacity="0.1"/>
</linearGradient>
</defs>
</svg>
