<svg width="14" height="20" viewBox="0 0 14 20" fill="none" xmlns="http://www.w3.org/2000/svg">
<path fill-rule="evenodd" clip-rule="evenodd" d="M7.62444 5.13849L12.4996 10.0821C13.3578 10.9428 12.0704 12.2343 11.2119 11.3735L8.34217 8.49517C8.10235 8.25462 7.91059 8.33394 7.91059 8.66905V18.6412C7.91059 19.1456 7.50301 19.5543 7.00013 19.5543C6.49726 19.5543 6.08968 19.1456 6.08968 18.6412V8.66905C6.08968 8.33442 5.89643 8.25609 5.65805 8.49517L2.78807 11.3735C1.92982 12.2343 0.642133 10.9428 1.50039 10.0821L6.34387 5.14123C6.69652 4.7815 7.27051 4.77959 7.62444 5.13849ZM0.913043 1.82609C0.408783 1.82609 0 1.4173 0 0.913043C0 0.408784 0.408783 0 0.913043 0H13.087C13.5912 0 14 0.408784 14 0.913043C14 1.4173 13.5912 1.82609 13.087 1.82609H0.913043Z" fill="white"/>
</svg>
