<svg width="17" height="25" viewBox="0 0 17 25" fill="none" xmlns="http://www.w3.org/2000/svg">
<path fill-rule="evenodd" clip-rule="evenodd" d="M8.49998 0C3.80614 0 0 3.66389 0 8.14979C0 9.07531 0.42021 10.235 1.04176 11.6216C1.6633 13.0083 2.50466 14.5855 3.39262 16.1617C5.16854 19.3143 7.15473 22.4832 7.97451 23.9669C8.02396 24.0574 8.09921 24.1334 8.19194 24.1864C8.28467 24.2394 8.39127 24.2675 8.49999 24.2675C8.60871 24.2675 8.71532 24.2394 8.80805 24.1864C8.90078 24.1334 8.97602 24.0574 9.02548 23.9669C9.84526 22.4832 11.8314 19.3143 13.6074 16.1617C14.4953 14.5855 15.3275 13.0083 15.949 11.6216C16.5706 10.235 17 9.07531 17 8.14979C17 3.66413 13.1966 0 8.49998 0V0ZM8.49998 4.4798C10.176 4.4798 11.5423 5.76307 11.5423 7.33136C11.5423 8.89754 10.176 10.1829 8.49998 10.1829C6.82399 10.1829 5.44848 8.89754 5.44848 7.33136C5.44848 5.76307 6.82399 4.4798 8.49998 4.4798V4.4798Z" fill="#D6D5D5"/>
</svg>
