<svg width="80" height="80" viewBox="0 0 80 80" fill="none" xmlns="http://www.w3.org/2000/svg">
<path d="M40 0C17.904 0 0 17.904 0 40C0 62.096 17.904 80 40 80C62.096 80 80 62.096 80 40C80 17.904 62.096 0 40 0ZM60.016 53.328C60.016 53.6 59.952 53.856 59.856 54.08C59.504 54.704 58.832 55.12 58.064 55.12C56.08 55.12 54.08 55.12 52.096 55.12C51.664 55.12 51.248 55.12 50.832 55.12C50.608 55.296 50.336 55.424 50.016 55.504C49.84 55.552 49.664 55.568 49.472 55.568C45.216 55.584 40.144 55.584 35.888 55.568C35.84 55.568 35.712 55.552 35.712 55.536C35.712 55.552 35.584 55.568 35.52 55.568C31.264 55.584 26.192 55.584 21.936 55.568C20.784 55.552 20.064 54.912 20.032 53.904C20 53.2 20.016 52.48 20.016 51.776C20.016 50.768 20.544 50.016 21.456 49.392C24.064 47.616 27.648 46.064 30.608 44.768C30.912 44.624 31.056 44.448 31.04 44.144C31.008 43.584 31.04 43.008 31.024 42.448C31.024 42.192 30.928 41.952 30.88 41.664C30.912 41.664 30.944 41.664 30.976 41.664C30.928 41.664 30.88 41.536 30.848 41.456C30.464 40.672 30 39.92 29.568 39.152C29.488 39.008 29.376 38.896 29.28 38.768C28.352 37.504 27.904 36.128 28.016 34.624C28.032 34.416 28.08 34.16 28.208 34C28.576 33.536 28.464 33.056 28.384 32.576C28.224 31.536 28.144 30.496 28.416 29.472C28.752 28.208 29.472 27.264 30.96 26.912C31.104 26.88 31.248 26.752 31.312 26.624C32.128 25.136 33.888 24.352 35.728 24.384C37.584 24.352 39.328 25.136 40.144 26.624C40.208 26.736 40.368 26.88 40.496 26.912C41.984 27.248 42.704 28.208 43.04 29.472C43.312 30.512 43.232 31.536 43.072 32.576C42.992 33.072 42.88 33.536 43.248 34C43.376 34.16 43.424 34.416 43.44 34.624C43.552 36.144 43.104 37.52 42.176 38.768C42.08 38.896 41.968 39.008 41.888 39.152C41.456 39.904 40.976 40.656 40.608 41.456C40.576 41.536 40.528 41.664 40.48 41.664C40.496 41.664 40.512 41.664 40.528 41.664C40.48 41.936 40.4 42.192 40.384 42.448C40.352 43.008 40.4 43.584 40.368 44.144C40.352 44.464 40.48 44.624 40.8 44.768C41.728 45.184 42.736 45.616 43.744 46.08C45.296 46.784 46.864 47.552 48.288 48.368C48.56 48.528 48.816 48.672 49.072 48.832C49.392 49.024 49.68 49.216 49.968 49.408C50.88 50.032 51.392 50.784 51.392 51.76C51.392 52.256 51.408 52.768 51.408 53.264C51.408 53.488 51.408 53.696 51.392 53.904C51.392 53.952 51.392 54 51.376 54.048C51.328 54.464 51.168 54.816 50.896 55.072C51.568 54.864 51.984 54.352 52.048 53.664C52.064 53.664 52.08 53.664 52.096 53.664C54.144 53.664 55.808 52 55.808 49.952C55.808 49.2 55.568 48.48 55.152 47.888C54.48 46.912 53.36 46.272 52.096 46.272C50.8 46.272 49.664 46.96 48.992 47.968C48.992 47.968 48.976 47.968 48.976 47.984C47.552 47.168 45.984 46.4 44.432 45.696C44.816 45.152 45.44 44.832 46.224 44.832C46.976 44.832 47.744 44.848 48.528 44.848V44.864H48.88V44.512C48.88 43.6 49.552 42.848 50.432 42.736H50.416C50.48 42.72 50.544 42.72 50.624 42.72C51.088 42.72 51.552 42.72 52.016 42.72C52.512 42.72 52.992 42.72 53.488 42.72C53.504 42.72 53.488 42.72 53.504 42.72C54.448 42.784 55.136 43.552 55.136 44.512V44.864H55.632V44.848C56.448 44.848 57.232 44.816 58.032 44.832C58.832 44.848 59.456 45.2 59.84 45.904C59.872 45.952 59.888 45.984 59.904 46.032C59.968 46.224 60 46.416 60.016 46.592V53.328ZM49.728 48.448C50.24 47.696 51.104 47.216 52.08 47.216C53.648 47.216 54.912 48.496 54.944 50.064C54.944 51.632 53.664 52.912 52.096 52.912C52.096 52.912 52.096 52.912 52.08 52.912C52.08 52.416 52.064 51.904 52.064 51.408C52.064 50.4 51.536 49.648 50.624 49.024C50.336 48.816 50.032 48.64 49.728 48.448Z" fill="#BFBFBF"/>
</svg>
