<svg width="30" height="30" viewBox="0 0 30 30" fill="none" xmlns="http://www.w3.org/2000/svg">
<path d="M29.337 23.0747H28.2793V24H29.337V23.0747Z" fill="#006400"/>
<path d="M1.58906 23.0747H0.53096V24H1.58906V23.0747Z" fill="#006400"/>
<path d="M0 5.3999V22.7883H29.8687V5.3999H0ZM4.31484 19.8033C4.31484 19.8823 4.25071 19.9465 4.1717 19.9465H3.78999C3.71098 19.9465 3.64685 19.8823 3.64685 19.8033V8.38525C3.64685 8.30624 3.71098 8.24211 3.78999 8.24211H4.1717C4.25071 8.24211 4.31484 8.30624 4.31484 8.38525V19.8033ZM8.69648 19.8033C8.69648 19.8823 8.63235 19.9465 8.55334 19.9465H8.17163C8.09262 19.9465 8.02849 19.8823 8.02849 19.8033V8.38525C8.02849 8.30624 8.09262 8.24211 8.17163 8.24211H8.55334C8.63235 8.24211 8.69648 8.30624 8.69648 8.38525V19.8033ZM13.0777 19.8033C13.0777 19.8823 13.0136 19.9465 12.9346 19.9465H12.5529C12.4739 19.9465 12.4097 19.8823 12.4097 19.8033V8.38525C12.4097 8.30624 12.4739 8.24211 12.5529 8.24211H12.9346C13.0136 8.24211 13.0777 8.30624 13.0777 8.38525V19.8033ZM17.4586 19.8033C17.4586 19.8823 17.3945 19.9465 17.3155 19.9465H16.9338C16.8548 19.9465 16.7906 19.8823 16.7906 19.8033V8.38525C16.7906 8.30624 16.8548 8.24211 16.9338 8.24211H17.3155C17.3945 8.24211 17.4586 8.30624 17.4586 8.38525V19.8033ZM21.8406 19.8033C21.8406 19.8823 21.7765 19.9465 21.6975 19.9465H21.3158C21.2372 19.9465 21.1726 19.8823 21.1726 19.8033V8.38525C21.1726 8.30624 21.2372 8.24211 21.3158 8.24211H21.6975C21.7765 8.24211 21.8406 8.30624 21.8406 8.38525V19.8033ZM26.2215 19.8033C26.2215 19.8823 26.1574 19.9465 26.0784 19.9465H25.6967C25.6177 19.9465 25.5535 19.8823 25.5535 19.8033V8.38525C25.5535 8.30624 25.6177 8.24211 25.6967 8.24211H26.0784C26.1574 8.24211 26.2215 8.30624 26.2215 8.38525V19.8033Z" fill="#006400"/>
</svg>
