<svg width="40" height="17" viewBox="0 0 40 17" fill="none" xmlns="http://www.w3.org/2000/svg">
<path d="M9.04622 15.832V11.4445H8.31156V15.832H7.50311V16.4933H8.31156H9.04622H9.85467V15.832H9.04622Z" fill="#FF73AD"/>
<path fill-rule="evenodd" clip-rule="evenodd" d="M30.5164 14.2689C30.5164 13.0404 31.512 12.0449 32.7404 12.0449C33.9689 12.0449 34.9644 13.0404 34.9644 14.2689C34.9644 15.4973 33.9689 16.4929 32.7404 16.4929C31.512 16.4929 30.5164 15.4973 30.5164 14.2689ZM31.524 14.2689C31.524 14.9409 32.0684 15.4858 32.7404 15.4858C33.4129 15.4858 33.9573 14.9409 33.9573 14.2689C33.9573 13.5969 33.4129 13.052 32.7404 13.052C32.0689 13.052 31.524 13.5969 31.524 14.2689Z" fill="#FF73AD"/>
<path fill-rule="evenodd" clip-rule="evenodd" d="M35.552 14.2689C35.552 13.0404 36.5476 12.0449 37.776 12.0449C39.0044 12.0449 40 13.0404 40 14.2689C40 15.4973 39.0044 16.4929 37.776 16.4929C36.5476 16.4929 35.552 15.4973 35.552 14.2689ZM36.5591 14.2689C36.5591 14.9409 37.104 15.4858 37.776 15.4858C38.448 15.4858 38.9929 14.9409 38.9929 14.2689C38.9929 13.5969 38.4476 13.052 37.776 13.052C37.1045 13.052 36.5591 13.5969 36.5591 14.2689Z" fill="#FF73AD"/>
<rect width="40" height="10.656" fill="#FF73AD"/>
</svg>
